<svg width="544" height="540" viewBox="0 0 544 540" fill="none" xmlns="http://www.w3.org/2000/svg">
<path d="M406.941 0.237753C407.676 0.23866 408.41 0.239566 409.167 0.2405C409.941 0.233783 410.716 0.227066 411.514 0.220145C414.088 0.20107 416.662 0.197233 419.237 0.19509C421.034 0.18866 422.831 0.181932 424.629 0.174918C428.41 0.162915 432.191 0.159239 435.973 0.160422C440.776 0.160623 445.579 0.133518 450.382 0.0988774C454.104 0.0764118 457.825 0.0725905 461.547 0.0736413C463.315 0.0713072 465.082 0.06261 466.85 0.0469766C488.522 -0.126496 506.231 4.83418 522.667 19.531C539.814 36.563 542.193 58.5927 542.667 81.531C542.691 82.6018 542.691 82.6018 542.717 83.6941C542.792 87.3114 542.778 90.9148 542.667 94.531C542.65 95.4011 542.633 96.2713 542.616 97.1677C542.548 98.3685 542.548 98.3685 542.479 99.5935C542.427 100.601 542.427 100.601 542.374 101.629C541.252 104.647 539.298 105.729 536.667 107.531C534.061 108.379 531.622 109.045 528.959 109.617C528.187 109.795 527.415 109.973 526.619 110.156C524.928 110.545 523.236 110.928 521.543 111.305C516.827 112.359 512.123 113.463 507.417 114.558C505.897 114.91 505.897 114.91 504.348 115.269C433.25 131.039 433.25 131.039 365.667 157.531C364.696 158.011 363.725 158.49 362.725 158.984C345.613 167.845 332.867 179.544 326.823 198.125C323.302 212.391 327.965 226.012 335.276 238.219C338.648 243.177 342.944 247.42 347.16 251.661C353.102 257.69 359.53 264.363 359.881 273.242C358.677 286.072 347.56 299.738 339.538 309.277C337.591 311.623 335.829 314.063 334.042 316.531C331.888 319.291 330.658 320.536 327.542 322.281C323.723 322.613 322.654 321.935 319.667 319.531C315.989 316.164 312.638 312.538 309.381 308.765C305.878 304.746 302.265 300.845 298.604 296.969C297.281 295.562 295.958 294.156 294.635 292.75C293.973 292.046 293.31 291.342 292.627 290.617C289.611 287.409 286.607 284.189 283.604 280.969C283.031 280.354 282.458 279.74 281.867 279.107C280.712 277.868 279.556 276.629 278.4 275.39C275.49 272.27 272.578 269.15 269.667 266.031C266.178 262.293 262.689 258.555 259.202 254.816C258.629 254.203 258.057 253.589 257.467 252.957C256.308 251.714 255.149 250.472 253.991 249.229C250.964 245.982 247.927 242.745 244.874 239.523C206.959 199.47 206.959 199.47 207.456 169.547C207.87 158.581 212.796 150.051 220.542 142.469C224.342 139.33 228.324 136.939 232.721 134.75C233.758 134.233 233.758 134.233 234.816 133.706C242.734 129.87 250.962 126.947 259.254 124.032C274.023 118.828 288.635 113.525 302.667 106.531C303.504 106.125 304.342 105.719 305.205 105.301C323.843 96.2297 339.855 85.0059 354.667 70.531C355.732 69.5584 355.732 69.5584 356.819 68.5662C374.023 52.4877 384.956 29.8924 395.885 9.4114C396.587 8.10163 396.587 8.10163 397.303 6.7654C397.918 5.60863 397.918 5.60863 398.544 4.42849C400.858 0.517089 402.544 0.293777 406.941 0.237753Z" fill="#ECE1CF"/>
<path d="M270.014 0.0974121C272.561 0.092845 275.107 0.0875379 277.653 0.0815277C282.963 0.0726354 288.272 0.0747421 293.581 0.0849609C299.71 0.0964955 305.838 0.0822563 311.966 0.0555645C317.889 0.0307375 323.813 0.0282266 329.736 0.0346813C332.247 0.0348347 334.758 0.028777 337.268 0.0163898C340.767 0.00154134 344.265 0.0121088 347.764 0.0292969C349.317 0.0147949 349.317 0.0147949 350.902 0C355.284 0.0451576 357.938 0.105707 361.778 2.34752C363.924 4.82852 364.725 6.80074 364.913 10.0896C363.023 28.8391 347.224 44.9501 334.667 57.531C334.083 58.1349 333.5 58.7389 332.898 59.3611C329.074 63.2885 325.114 66.7055 320.667 69.906C320.021 70.3737 319.375 70.8414 318.709 71.3232C294.041 88.9271 265.886 99.5375 237.574 109.783C207.712 120.604 178.678 132.619 153.667 152.531C152.941 153.102 152.215 153.673 151.467 154.261C139.201 164.407 130.483 178.439 123.667 192.656C118.177 204.05 110.328 213.384 101.667 222.531C100.897 223.353 100.127 224.176 99.3345 225.023C89.1039 235.634 77.2371 243.945 64.6665 251.531C63.6756 252.134 63.6756 252.134 62.6646 252.75C47.5892 261.826 23.8679 275.999 5.66655 273.531C2.83555 271.523 0.971284 269.93 0.211196 266.44C0.0282255 263.81 0.0140108 261.224 0.0513148 258.588C0.0457658 257.59 0.0402168 256.593 0.0344996 255.565C0.0226989 252.272 0.046984 248.98 0.0727992 245.687C0.0745102 243.397 0.0744447 241.107 0.0726771 238.817C0.0743306 234.018 0.0930348 229.22 0.124557 224.422C0.164234 218.272 0.168595 212.122 0.161087 205.971C0.158017 201.243 0.17016 196.514 0.18724 191.785C0.194271 189.518 0.197364 187.25 0.196517 184.982C0.198315 181.813 0.219712 178.644 0.246627 175.474C0.243697 174.537 0.240766 173.6 0.237747 172.634C0.300954 167.81 0.450308 164.402 3.66655 160.531C7.5036 158.203 11.315 156.935 15.647 155.84C16.7976 155.54 17.9482 155.24 19.1336 154.932C20.9752 154.455 20.9752 154.455 22.854 153.969C44.5315 148.204 65.4937 140.35 85.6665 130.531C86.5732 130.091 87.4799 129.65 88.4141 129.197C113.274 116.985 135.62 101.609 155.667 82.531C156.372 81.8787 157.077 81.2265 157.803 80.5544C169.147 69.7398 178.059 56.2408 186.506 43.1365C198.629 24.423 212.678 7.67016 235.277 1.95947C246.71 -0.41434 258.39 0.0791218 270.014 0.0974121Z" fill="#ECE1CF"/>
<path d="M186.667 158.531C187.667 159.531 187.667 159.531 187.732 162.053C187.708 163.161 187.684 164.268 187.659 165.41C187.271 185.161 187.271 185.161 190.667 204.531C190.957 205.598 191.247 206.666 191.545 207.765C198.228 229.798 214.972 246.054 230.956 261.793C234.867 265.767 238.572 269.889 241.667 274.531C241.556 278.55 241.241 280.817 238.698 283.98C237.862 284.719 237.027 285.457 236.167 286.219C224.938 296.82 215.052 310.428 214.331 326.394C214.301 328.21 214.288 330.027 214.292 331.844C214.294 333.293 214.294 333.293 214.296 334.771C214.452 344.078 216.204 352.595 218.667 361.531C219.042 362.943 219.415 364.356 219.788 365.769C220.452 368.284 221.136 370.791 221.835 373.297C226.125 389.977 222.844 405.487 214.381 420.226C207.524 431.48 198.292 441.154 189.303 450.719C185.996 454.246 182.813 457.86 179.667 461.531C178.836 462.482 178.006 463.434 177.151 464.414C170.475 472.12 164.429 480.124 158.667 488.531C158.255 489.126 157.844 489.722 157.421 490.335C149.701 501.551 142.712 513.169 136.143 525.094C135.737 525.828 135.331 526.562 134.913 527.318C134.142 528.719 133.378 530.123 132.621 531.531C130.863 534.733 129.764 536.466 126.667 538.531C123.782 538.785 123.782 538.785 120.223 538.79C119.25 538.795 119.25 538.795 118.256 538.8C116.112 538.809 113.967 538.803 111.823 538.797C110.332 538.798 108.841 538.8 107.351 538.802C104.227 538.805 101.103 538.801 97.9795 538.792C93.9745 538.78 89.9697 538.787 85.9646 538.799C82.8866 538.806 79.8086 538.804 76.7305 538.799C75.2537 538.797 73.7769 538.799 72.3002 538.804C70.2366 538.809 68.1734 538.801 66.1099 538.79C64.3481 538.787 64.3481 538.787 62.5507 538.785C59.6665 538.531 59.6665 538.531 56.6665 536.531C57.2176 532.755 58.1678 530.397 60.44 527.344C61.0118 526.569 61.5837 525.795 62.1729 524.997C62.7895 524.183 63.4062 523.369 64.0415 522.531C64.9917 521.261 64.9917 521.261 65.961 519.966C70.8566 513.476 75.9598 507.215 81.3101 501.098C82.723 499.466 84.107 497.812 85.4868 496.152C90.8754 489.699 96.4743 483.543 102.417 477.594C103.319 476.69 103.319 476.69 104.24 475.768C111.143 468.95 118.544 462.742 126.042 456.594C126.788 455.979 127.534 455.365 128.302 454.733C132.14 451.579 136.003 448.466 139.917 445.406C157.33 431.499 173.9 414.53 177.417 391.531C177.527 390.2 177.607 388.866 177.667 387.531C177.718 386.617 177.77 385.703 177.823 384.761C178.233 371.449 174.201 359.165 165.042 349.281C147.03 332.6 121.814 329.916 98.4165 330.094C97.1133 330.099 97.1133 330.099 95.7837 330.104C72.2443 330.235 49.7144 333.986 26.8015 339.156C7.5666 343.491 7.5666 343.491 2.57278 340.969C-0.521805 335.388 0.0267823 329.794 0.166534 323.531C0.163956 322.26 0.161378 320.989 0.158721 319.679C0.271124 309.001 0.271124 309.001 3.66653 304.531C7.07936 301.332 10.2355 299.717 14.647 298.234C16.3797 297.639 16.3797 297.639 18.1475 297.031C19.9822 296.412 19.9822 296.412 21.854 295.781C56.6669 283.729 85.9246 266.001 112.667 240.531C113.265 239.961 113.864 239.391 114.481 238.803C129.715 224.191 141.913 208.41 151.792 189.719C156.73 180.516 173.483 152.938 186.667 158.531Z" fill="#ECE1CF"/>
<path d="M261.667 294.531C263.872 296.51 265.701 298.36 267.604 300.594C268.091 301.142 268.577 301.691 269.079 302.256C270.623 304.002 272.146 305.765 273.667 307.531C278.342 312.938 283.129 318.213 288.042 323.406C292.924 328.59 297.759 333.805 302.502 339.117C306.384 343.447 310.329 347.721 314.264 352.003C315.64 353.502 317.015 355.003 318.389 356.504C323.621 362.217 328.861 367.923 334.122 373.609C336.613 376.302 339.097 379 341.565 381.715C374.69 418.065 412.412 443.022 460.979 453.344C462.354 453.636 462.354 453.636 463.757 453.934C480.223 457.223 496.174 457.759 512.917 457.531C516.922 457.478 520.927 457.438 524.932 457.406C526.29 457.381 526.29 457.381 527.675 457.356C535.839 457.292 535.839 457.292 539.667 459.531C541.75 462.656 541.928 463.431 541.967 466.996C541.977 467.872 541.987 468.749 541.997 469.651C541.873 489.468 536.907 506.665 522.522 520.91C515.089 527.732 507.224 533.159 497.667 536.531C496.879 536.831 496.091 537.132 495.28 537.441C491.024 538.503 488.56 538.054 484.76 535.832C482.297 534.06 479.929 532.172 477.549 530.289C471.365 525.429 464.831 521.08 458.292 516.719C457.317 516.068 457.317 516.068 456.322 515.405C392.881 473.234 316.359 446.727 239.718 461.083C229.661 463.141 219.982 465.821 210.479 469.711C207.406 470.607 205.701 470.435 202.667 469.531C201.99 467.759 201.99 467.759 201.667 465.531C202.753 463.731 202.753 463.731 204.487 461.887C205.137 461.19 205.787 460.493 206.457 459.775C209.58 456.603 212.744 453.477 215.938 450.377C233.852 432.949 247.188 414.273 247.917 388.531C247.748 375.118 243.989 362.595 240.092 349.868C236.045 336.562 234.446 323.405 241.178 310.672C252.698 291.93 252.698 291.93 261.667 294.531Z" fill="#ECE1CF"/>
<path d="M537.667 132.531C541.058 135.718 542.14 138.295 542.364 142.933C542.377 143.642 542.39 144.351 542.404 145.081C542.432 145.856 542.461 146.63 542.49 147.428C542.577 150.129 542.626 152.829 542.667 155.531C542.683 156.54 542.699 157.55 542.716 158.59C542.834 166.97 542.857 175.349 542.87 183.73C542.872 185.064 542.875 186.398 542.878 187.732C542.892 193.986 542.902 200.24 542.905 206.494C542.91 213.67 542.928 220.846 542.956 228.022C542.978 233.609 542.988 239.196 542.99 244.782C542.991 248.104 542.998 251.426 543.014 254.747C543.031 258.439 543.03 262.131 543.023 265.823C543.032 266.91 543.041 267.997 543.051 269.118C543.011 276.387 542.198 281.309 537.604 287.156C519.405 301.87 492.788 301.789 470.667 300.531C464.47 299.864 458.591 298.435 452.667 296.531C451.666 296.218 451.666 296.218 450.645 295.898C415.88 284.709 385.546 257.889 362.253 230.39C361.139 229.085 359.996 227.806 358.831 226.547C351.746 218.835 348.952 213.201 349.358 202.508C350.145 194.92 355.249 189.566 360.667 184.531C385.349 165.808 419.102 158.447 448.63 151.042C450.724 150.517 452.817 149.987 454.91 149.458C472.432 145.036 490.019 140.919 507.677 137.078C509.528 136.675 511.379 136.27 513.229 135.862C515.817 135.294 518.407 134.737 520.999 134.183C521.759 134.015 522.518 133.847 523.301 133.673C528.194 132.647 532.674 131.971 537.667 132.531Z" fill="#ECE1CF"/>
<path d="M390.667 292.531C394.499 294.236 398.054 296.406 401.667 298.531C418.682 308.203 436.472 315.48 455.667 319.531C456.98 319.809 456.98 319.809 458.319 320.093C466.906 321.724 475.399 321.927 484.104 321.906C485.222 321.907 485.222 321.907 486.363 321.907C500.304 321.883 513.162 320.015 526.647 316.492C527.808 316.195 528.97 315.899 530.167 315.594C531.126 315.316 532.085 315.039 533.073 314.754C536.502 314.459 537.973 315.477 540.667 317.531C541.986 320.169 541.878 322.257 541.979 325.211C542.02 326.413 542.061 327.615 542.104 328.853C542.144 330.186 542.183 331.519 542.221 332.851C542.242 333.532 542.263 334.213 542.285 334.915C542.768 350.845 542.82 366.773 542.797 382.71C542.791 386.682 542.795 390.654 542.8 394.626C542.804 397.744 542.803 400.862 542.8 403.979C542.8 405.446 542.801 406.912 542.803 408.378C542.828 428.561 542.828 428.561 540.229 432.969C531.621 438.217 519.795 436.929 510.042 436.906C508.814 436.906 508.814 436.906 507.563 436.905C493.619 436.869 480.269 435.777 466.667 432.531C465.526 432.266 465.526 432.266 464.362 431.996C421.655 421.721 384.42 392.451 356.385 359.469C354.339 357.162 352.173 355.009 349.979 352.844C341.795 344.66 341.795 344.66 341.237 339.765C341.321 335.779 342.576 333.719 345.451 330.866C345.998 330.363 346.545 329.861 347.108 329.344C347.668 328.797 348.229 328.25 348.806 327.687C350.596 325.948 352.411 324.239 354.229 322.531C356.012 320.821 357.789 319.105 359.565 317.389C360.712 316.282 361.86 315.177 363.011 314.074C367.149 310.094 371.007 305.958 374.667 301.531C375.937 300.052 377.208 298.573 378.479 297.094C379.042 296.435 379.606 295.776 380.186 295.097C383.167 291.944 386.569 291.768 390.667 292.531Z" fill="#ECE1CF"/>
<path d="M97.479 351.344C98.7559 351.331 100.033 351.319 101.348 351.306C117.973 351.281 135.959 353.129 148.448 365.261C153.548 370.925 156.653 376.749 156.667 384.531C155.219 402.083 143.466 415.344 130.667 426.531C125.485 430.731 120.067 434.62 114.667 438.531C100.675 448.82 87.3503 459.673 74.6665 471.531C73.6152 472.482 72.5618 473.432 71.5064 474.379C66.5609 478.825 61.7806 483.277 57.4986 488.383C55.6282 490.576 53.6852 492.692 51.7229 494.803C46.1083 500.846 40.8328 507.098 35.6665 513.531C33.9832 515.597 32.2934 517.658 30.604 519.719C29.8499 520.64 29.0958 521.562 28.3189 522.511C27.7736 523.178 27.2283 523.844 26.6665 524.531C17.6062 521.516 12.5482 513.031 8.35403 504.906C8.04103 504.317 7.72803 503.727 7.40555 503.12C0.0299492 487.975 0.0554342 472.19 0.100128 455.738C0.0948835 453.374 0.0886039 451.01 0.0813446 448.646C0.0710032 443.725 0.0754189 438.804 0.0901184 433.883C0.107415 427.577 0.0836445 421.272 0.0486298 414.966C0.0266992 410.099 0.0280819 405.233 0.0363922 400.366C0.0372118 398.039 0.0303504 395.713 0.015625 393.387C-0.00176694 390.146 0.0126699 386.907 0.0354309 383.667C0.0237387 382.71 0.0120465 381.752 0 380.766C0.0649138 376.231 0.159032 374.19 2.99783 370.503C8.24747 366.624 14.1262 364.973 20.3814 363.41C21.1061 363.225 21.8308 363.04 22.5775 362.849C24.9177 362.256 27.2605 361.674 29.604 361.094C30.4036 360.894 31.2031 360.695 32.0268 360.489C45.4637 357.149 58.9206 354.289 72.6665 352.531C73.4392 352.43 74.212 352.329 75.0081 352.225C82.4872 351.358 89.9573 351.347 97.479 351.344Z" fill="#ECE1CF"/>
<path d="M80.897 0.0349147C82.9057 0.0347593 84.9143 0.0332627 86.923 0.0305049C91.1041 0.0291308 95.285 0.0415158 99.4661 0.0644557C104.792 0.0928926 110.116 0.0900745 115.442 0.0773656C119.58 0.0703715 123.718 0.0782392 127.855 0.0906227C129.818 0.0950971 131.781 0.0955096 133.743 0.0915572C162.11 0.0611464 162.11 0.0611467 170.495 8.03101C172.948 11.1717 173.197 14.8867 173.116 18.7693C170.059 37.5622 151.301 54.5379 138.667 67.531C137.916 68.3212 137.166 69.1114 136.393 69.9255C111.862 95.3076 78.743 112.538 45.604 123.531C44.9258 123.757 44.2476 123.982 43.5489 124.215C36.1536 126.655 28.7056 128.876 21.1705 130.844C19.9221 131.17 18.6737 131.496 17.3875 131.832C13.2684 132.606 9.84647 132.784 5.66655 132.531C3.23535 130.661 2.02585 129.25 0.666545 126.531C0.554523 124.523 0.507226 122.511 0.489543 120.499C0.476708 119.23 0.463873 117.96 0.450649 116.652C0.442472 115.255 0.43503 113.858 0.428264 112.461C0.424189 111.754 0.420111 111.048 0.415912 110.32C0.395018 106.567 0.380744 102.814 0.371379 99.0608C0.360428 95.2261 0.32617 91.392 0.286205 87.5575C0.259721 84.5767 0.251657 81.5961 0.248096 78.6152C0.243296 77.2049 0.231878 75.7946 0.213062 74.3845C0.0490741 61.2574 2.05132 48.0421 8.22905 36.281C8.56565 35.6275 8.90226 34.9741 9.24907 34.3008C14.9499 23.7955 23.4191 15.6303 33.6665 9.53101C34.4206 9.0721 35.1747 8.6132 35.9517 8.14038C50.0768 0.311467 65.2004 -0.0654046 80.897 0.0349147Z" fill="#ECE1CF"/>
<path d="M281.479 479.156C282.351 479.16 283.223 479.165 284.121 479.169C297.514 479.247 310.501 479.926 323.667 482.531C324.554 482.692 325.441 482.853 326.355 483.019C367.328 490.489 406.141 508.577 440.667 531.531C441.276 531.936 441.885 532.34 442.513 532.757C443.899 533.68 445.283 534.605 446.667 535.531C446.337 536.521 446.007 537.511 445.667 538.531C409.555 538.623 373.443 538.693 337.331 538.735C333.07 538.74 328.809 538.745 324.548 538.751C323.7 538.752 322.852 538.753 321.978 538.754C308.233 538.771 294.488 538.803 280.742 538.84C266.644 538.877 252.546 538.899 238.448 538.907C229.745 538.913 221.042 538.93 212.339 538.963C206.375 538.984 200.412 538.99 194.448 538.985C191.005 538.982 187.562 538.986 184.118 539.008C180.388 539.028 176.659 539.023 172.929 539.012C171.836 539.024 170.743 539.035 169.616 539.047C162.321 538.989 162.321 538.989 158.973 536.645C157.667 534.531 157.667 534.531 157.499 532.23C159.275 528.124 162.173 525.434 165.354 522.344C166.03 521.681 166.705 521.018 167.401 520.335C173.684 514.299 180.293 509.158 187.667 504.531C188.275 504.148 188.884 503.764 189.512 503.369C203.093 494.969 217.824 488.882 233.229 484.719C233.898 484.536 234.568 484.353 235.258 484.165C250.54 480.321 265.768 479.007 281.479 479.156Z" fill="#ECE1CF"/>
<path d="M227.667 441.531C226.325 444.439 224.805 446.783 222.729 449.219C222.225 449.82 221.721 450.422 221.202 451.043C219.667 452.531 219.667 452.531 216.667 453.531C216.275 454.253 215.883 454.975 215.479 455.719C213.279 459.132 210.736 460.846 207.409 463.101C205.378 464.509 205.378 464.509 204.667 467.531C205.68 467.158 206.693 466.786 207.737 466.402C209.088 465.924 210.44 465.446 211.792 464.969C212.457 464.722 213.122 464.475 213.807 464.22C218.164 462.704 221.197 462.368 225.667 463.531C222.132 465.408 218.477 466.822 214.729 468.219C213.524 468.676 212.318 469.134 211.077 469.605C207.683 470.527 205.972 470.566 202.667 469.531C201.984 467.763 201.984 467.763 201.667 465.531C202.81 463.689 202.81 463.689 204.588 461.812C205.562 460.77 205.562 460.77 206.555 459.707C207.252 458.989 207.949 458.271 208.667 457.531C209.337 456.823 210.008 456.116 210.7 455.386C212.75 453.245 214.828 451.135 216.917 449.031C217.623 448.304 218.329 447.577 219.057 446.828C219.738 446.142 220.418 445.456 221.12 444.75C221.73 444.13 222.34 443.511 222.968 442.873C224.667 441.531 224.667 441.531 227.667 441.531Z" fill="#ECE1CF"/>
<path d="M243.667 0.531006C244.824 0.772154 244.824 0.772154 246.004 1.01817C250.772 1.68576 255.453 1.70833 260.262 1.73633C261.316 1.74623 262.37 1.75613 263.456 1.76633C266.93 1.79783 270.404 1.82266 273.877 1.84741C276.29 1.86799 278.703 1.88899 281.116 1.91039C287.458 1.96551 293.801 2.01496 300.143 2.06323C306.618 2.11352 313.094 2.16917 319.569 2.22437C332.268 2.33183 344.967 2.43348 357.667 2.53101C357.997 1.87101 358.327 1.21101 358.667 0.531006C359.987 1.85101 361.307 3.17101 362.667 4.53101C362.007 5.19101 361.347 5.85101 360.667 6.53101C360.172 5.54101 360.172 5.54101 359.667 4.53101C320.727 4.20101 281.787 3.87101 241.667 3.53101C242.327 2.54101 242.987 1.55101 243.667 0.531006Z" fill="#ECE1CF"/>
<path d="M349.667 255.531C355.186 260.744 359.334 265.359 359.811 273.136C359.34 280.947 354.564 287.642 350.604 294.156C350.169 294.88 349.733 295.604 349.284 296.35C348.163 298.133 346.923 299.84 345.667 301.531C344.677 301.531 343.687 301.531 342.667 301.531C344.153 297.38 346.223 293.921 348.604 290.219C352.944 283.297 356.745 277.006 355.667 268.531C353.933 264.503 351.399 260.946 348.667 257.531C348.997 256.871 349.327 256.211 349.667 255.531Z" fill="#ECE1CF"/>
<path d="M2.66653 374.531C2.99653 374.531 3.32653 374.531 3.66653 374.531C3.99653 411.821 4.32653 449.111 4.66653 487.531C3.67653 487.201 2.68653 486.871 1.66653 486.531C1.33653 482.571 1.00653 478.611 0.666534 474.531C0.996534 474.531 1.32653 474.531 1.66653 474.531C1.99653 441.531 2.32653 408.531 2.66653 374.531Z" fill="#ECE1CF"/>
<path d="M401.667 0.531006C402.327 0.861006 402.987 1.19101 403.667 1.53101C405.686 1.6277 407.708 1.65897 409.73 1.6604C411.006 1.66355 412.282 1.6667 413.597 1.66995C415 1.66816 416.404 1.66611 417.807 1.66382C419.25 1.66449 420.694 1.66546 422.137 1.66672C425.174 1.66819 428.21 1.66604 431.247 1.66138C435.099 1.65574 438.952 1.65892 442.804 1.66495C445.794 1.66861 448.783 1.66739 451.772 1.66482C453.19 1.66416 454.607 1.66494 456.025 1.6673C465.294 1.67932 474.432 1.31884 483.667 0.531006C483.337 1.52101 483.007 2.51101 482.667 3.53101C455.937 3.53101 429.207 3.53101 401.667 3.53101C401.007 5.51101 400.347 7.49101 399.667 9.53101C398.042 11.406 398.042 11.406 396.667 12.531C395.667 9.53101 395.667 9.53101 396.627 7.52319C397.094 6.82452 397.561 6.12585 398.042 5.40601C398.503 4.70218 398.965 3.99835 399.44 3.27319C400.667 1.53101 400.667 1.53101 401.667 0.531006Z" fill="#ECE1CF"/>
<path d="M64.6665 0.531009C64.6665 0.861009 64.6665 1.19101 64.6665 1.53101C74.3857 1.55427 84.1049 1.572 93.8241 1.58282C98.3381 1.58802 102.852 1.59506 107.366 1.60645C111.73 1.61739 116.093 1.62331 120.457 1.62589C122.114 1.62772 123.771 1.6313 125.429 1.63674C134.221 1.66441 142.922 1.58641 151.667 0.531009C151.667 1.52101 151.667 2.51101 151.667 3.53101C120.977 3.53101 90.2865 3.53101 58.6665 3.53101C58.3365 2.87101 58.0065 2.21101 57.6665 1.53101C60.1293 0.299615 61.946 0.459417 64.6665 0.531009Z" fill="#ECE1CF"/>
<path d="M2.66653 165.531C2.99653 165.531 3.32653 165.531 3.66653 165.531C3.67462 166.815 3.68271 168.098 3.69104 169.421C3.76843 181.502 3.85615 193.583 3.95406 205.664C4.00407 211.876 4.0504 218.087 4.08841 224.298C4.12521 230.29 4.17155 236.281 4.2246 242.272C4.24317 244.561 4.25827 246.85 4.26988 249.139C4.28669 252.338 4.31571 255.536 4.34769 258.735C4.34985 259.688 4.35201 260.64 4.35423 261.621C4.3654 262.492 4.37656 263.363 4.38806 264.26C4.39359 265.017 4.39912 265.774 4.40482 266.553C4.56093 268.85 4.56093 268.85 6.66653 271.531C5.34653 271.531 4.02653 271.531 2.66653 271.531C2.00653 269.881 1.34653 268.231 0.666534 266.531C0.996534 266.531 1.32653 266.531 1.66653 266.531C1.99653 233.201 2.32653 199.871 2.66653 165.531Z" fill="#ECE1CF"/>
<path d="M539.667 72.531C540.327 72.531 540.987 72.531 541.667 72.531C543.075 82.9174 543.075 93.1446 541.667 103.531C540.677 103.861 539.687 104.191 538.667 104.531C538.642 100.134 538.624 95.7379 538.612 91.3413C538.607 89.8446 538.6 88.3478 538.591 86.8511C538.579 84.704 538.573 82.557 538.569 80.4099C538.564 79.1164 538.558 77.8229 538.553 76.4902C538.667 73.531 538.667 73.531 539.667 72.531Z" fill="#ECE1CF"/>
<path d="M218.667 144.531C218.997 145.521 219.327 146.511 219.667 147.531C218.522 149.801 218.522 149.801 216.854 152.344C214.544 156.004 212.778 159.309 211.667 163.531C211.007 163.531 210.347 163.531 209.667 163.531C209.997 164.191 210.327 164.851 210.667 165.531C210.738 168.415 210.759 171.273 210.729 174.156C210.725 174.958 210.72 175.76 210.715 176.586C210.704 178.567 210.686 180.549 210.667 182.531C209.677 182.201 208.687 181.871 207.667 181.531C207.209 167.864 207.993 157.741 216.667 146.531C217.327 145.871 217.987 145.211 218.667 144.531Z" fill="#ECE1CF"/>
<path d="M180.667 379.531C180.997 379.531 181.327 379.531 181.667 379.531C182.465 392.893 178.642 406.707 170.667 417.531C169.677 417.201 168.687 416.871 167.667 416.531C168.149 415.602 168.631 414.672 169.127 413.715C169.766 412.466 170.404 411.217 171.042 409.969C171.359 409.359 171.676 408.75 172.002 408.123C174.94 402.34 176.571 396.459 177.792 390.094C177.959 389.229 178.127 388.364 178.299 387.472C178.421 386.832 178.542 386.191 178.667 385.531C178.997 385.531 179.327 385.531 179.667 385.531C179.997 383.551 180.327 381.571 180.667 379.531Z" fill="#ECE1CF"/>
<path d="M537.667 458.531C539.643 459.894 539.643 459.894 541.667 462.531C542.239 465.931 542.132 469.28 542.042 472.719C542.04 473.627 542.039 474.535 542.038 475.47C541.961 481.422 541.139 486.766 539.667 492.531C538.677 492.531 537.687 492.531 536.667 492.531C536.765 491.626 536.765 491.626 536.866 490.702C538.687 474.62 538.687 474.62 537.667 458.531Z" fill="#ECE1CF"/>
<path d="M43.6665 121.531C43.3365 122.521 43.0065 123.511 42.6665 124.531C40.3533 125.498 40.3533 125.498 37.3111 126.32C36.2134 126.622 35.1158 126.923 33.9849 127.234C32.828 127.538 31.671 127.843 30.479 128.156C29.3414 128.468 28.2038 128.78 27.0318 129.101C21.923 130.485 16.9018 131.723 11.6665 132.531C11.6665 132.201 11.6665 131.871 11.6665 131.531C8.69653 131.036 8.69653 131.036 5.66653 130.531C5.66653 130.201 5.66653 129.871 5.66653 129.531C8.63653 129.531 11.6065 129.531 14.6665 129.531C14.9965 128.871 15.3265 128.211 15.6665 127.531C17.564 127.28 19.463 127.037 21.3672 126.844C25.196 126.323 28.8022 125.127 32.479 123.969C40.2884 121.531 40.2884 121.531 43.6665 121.531Z" fill="#ECE1CF"/>
<path d="M85.534 351.417C86.7856 351.423 88.0372 351.428 89.3267 351.433C90.3234 351.435 90.3234 351.435 91.3402 351.438C93.4699 351.443 95.5994 351.456 97.729 351.469C99.1698 351.474 100.611 351.478 102.051 351.482C105.59 351.493 109.128 351.51 112.667 351.531C112.667 352.521 112.667 353.511 112.667 354.531C108.734 354.58 104.801 354.617 100.868 354.641C98.8733 354.656 96.8783 354.681 94.8833 354.707C93.6297 354.713 92.3761 354.72 91.0845 354.726C89.9272 354.737 88.7698 354.747 87.5774 354.758C84.6665 354.531 84.6665 354.531 81.6665 352.531C82.6665 351.531 82.6665 351.531 85.534 351.417Z" fill="#ECE1CF"/>
<path d="M368.667 233.531C373.049 237.071 376.867 240.722 380.405 245.113C381.631 246.668 381.631 246.668 383.667 247.531C383.667 248.191 383.667 248.851 383.667 249.531C384.244 249.758 384.822 249.985 385.417 250.219C388.233 251.861 389.747 253.926 391.667 256.531C387.119 256.049 385.176 254.517 382.022 251.277C381.181 250.423 380.34 249.569 379.473 248.689C378.609 247.791 377.745 246.894 376.854 245.969C375.97 245.067 375.087 244.165 374.176 243.236C371.997 241.01 369.828 238.775 367.667 236.531C367.997 235.541 368.327 234.551 368.667 233.531Z" fill="#ECE1CF"/>
<path d="M362.667 362.531C369.825 368.357 376.192 374.969 382.667 381.531C382.337 382.521 382.007 383.511 381.667 384.531C374.509 378.705 368.141 372.093 361.667 365.531C361.997 364.541 362.327 363.551 362.667 362.531Z" fill="#ECE1CF"/>
<path d="M82.6665 326.531C92.8965 326.531 103.127 326.531 113.667 326.531C109.598 329.583 109.13 329.905 104.463 329.824C102.994 329.809 102.994 329.809 101.495 329.795C99.971 329.757 99.971 329.757 98.4165 329.719C97.3853 329.705 96.354 329.691 95.2915 329.677C92.7493 329.642 90.2082 329.593 87.6665 329.531C87.6665 328.871 87.6665 328.211 87.6665 327.531C86.0165 327.531 84.3665 327.531 82.6665 327.531C82.6665 327.201 82.6665 326.871 82.6665 326.531Z" fill="#ECE1CF"/>
<path d="M472.761 429.558C474.623 429.833 474.623 429.833 476.522 430.113C477.184 430.206 477.845 430.299 478.527 430.395C480.639 430.696 482.746 431.019 484.854 431.344C486.285 431.551 487.717 431.758 489.149 431.963C492.658 432.468 496.163 432.994 499.667 433.531C499.667 433.861 499.667 434.191 499.667 434.531C488.077 435.722 478.006 435.232 466.667 432.531C468.575 429.795 469.357 429.528 472.761 429.558Z" fill="#ECE1CF"/>
<path d="M377.667 41.531C378.327 42.521 378.987 43.511 379.667 44.531C374.065 52.6002 368.439 60.3803 361.667 67.531C361.337 66.541 361.007 65.551 360.667 64.531C361.575 62.9404 361.575 62.9404 363.018 61.238C363.801 60.2915 363.801 60.2915 364.6 59.3259C365.158 58.6717 365.716 58.0175 366.292 57.3435C370.545 52.2956 374.311 47.224 377.667 41.531Z" fill="#ECE1CF"/>
<path d="M286.667 280.531C287.734 281.602 287.734 281.602 288.823 282.695C290.664 284.538 292.519 286.362 294.385 288.179C299.316 293.013 303.909 297.7 307.667 303.531C304.667 303.531 304.667 303.531 303.104 302.218C302.559 301.615 302.014 301.012 301.452 300.39C300.848 299.732 300.244 299.073 299.622 298.394C298.997 297.697 298.373 297 297.729 296.281C296.491 294.921 295.253 293.562 294.014 292.203C293.436 291.559 292.857 290.915 292.261 290.252C290.58 288.39 290.58 288.39 288.225 286.297C286.667 284.531 286.667 284.531 286.667 280.531Z" fill="#ECE1CF"/>
<path d="M191.667 127.531C189.014 129.592 186.35 131.356 183.409 132.976C182.223 133.632 182.223 133.632 181.014 134.301C180.198 134.748 179.382 135.195 178.542 135.656C177.718 136.111 176.894 136.566 176.045 137.035C170.098 140.315 170.098 140.315 167.667 141.531C167.007 140.871 166.347 140.211 165.667 139.531C187.589 126.172 187.589 126.172 191.667 127.531Z" fill="#ECE1CF"/>
<path d="M539.667 427.531C540.327 428.521 540.987 429.511 541.667 430.531C538.522 434.819 535.059 435.388 530.104 436.332C526.031 436.665 523.219 435.434 519.667 433.531C520.775 433.433 521.884 433.335 523.026 433.234C524.49 433.084 525.953 432.933 527.417 432.781C528.146 432.719 528.876 432.657 529.627 432.594C533.235 432.2 535.352 431.791 538.182 429.453C538.672 428.819 539.162 428.184 539.667 427.531Z" fill="#ECE1CF"/>
<path d="M126.667 106.531C127.327 106.861 127.987 107.191 128.667 107.531C125.708 111.682 122.438 114.274 118.104 116.844C117.527 117.203 116.95 117.562 116.356 117.931C113.571 119.618 111.981 120.531 108.667 120.531C109.801 117.127 110.292 116.855 113.229 115.086C113.943 114.649 114.657 114.212 115.393 113.761C116.143 113.314 116.894 112.867 117.667 112.406C119.146 111.509 120.625 110.61 122.104 109.711C122.763 109.316 123.421 108.921 124.1 108.515C125.648 107.624 125.648 107.624 126.667 106.531Z" fill="#ECE1CF"/>
<path d="M433.667 417.531C440.12 419.589 446.403 421.955 452.667 424.531C449.667 426.531 449.667 426.531 447.432 426.176C446.602 425.901 445.772 425.626 444.917 425.344C444.037 425.055 443.158 424.766 442.252 424.469C438.986 423.284 435.827 421.974 432.667 420.531C432.997 419.541 433.327 418.551 433.667 417.531Z" fill="#ECE1CF"/>
<path d="M17.6665 22.531C18.3265 23.521 18.9865 24.511 19.6665 25.531C19.2914 25.9925 18.9163 26.454 18.5298 26.9294C14.4414 32.1403 11.4461 37.5292 8.66653 43.531C7.47122 41.9021 7.47122 41.9021 6.66653 39.531C7.86185 36.6912 7.86185 36.6912 9.79153 33.5935C10.4129 32.5739 11.0342 31.5542 11.6743 30.5037C13.5432 27.7151 15.5256 25.1144 17.6665 22.531Z" fill="#ECE1CF"/>
<path d="M212.667 192.531C215.304 195.822 217.253 199.31 219.229 203.031C219.828 204.155 220.428 205.279 221.045 206.437C222.279 208.791 223.492 211.148 224.667 213.531C223.677 213.531 222.687 213.531 221.667 213.531C219.97 211.138 218.494 208.815 217.042 206.281C216.634 205.599 216.227 204.917 215.807 204.215C212.275 198.19 212.275 198.19 211.667 194.531C211.997 193.871 212.327 193.211 212.667 192.531Z" fill="#ECE1CF"/>
<path d="M521.667 135.531C515.746 140.54 509.113 140.972 501.667 141.531C501.667 140.541 501.667 139.551 501.667 138.531C504.623 137.835 507.581 137.149 510.542 136.468C511.383 136.269 512.225 136.07 513.092 135.865C513.898 135.681 514.704 135.498 515.534 135.308C516.277 135.136 517.021 134.963 517.787 134.785C519.667 134.531 519.667 134.531 521.667 135.531Z" fill="#ECE1CF"/>
<path d="M352.667 193.531C353.729 195.344 353.729 195.344 354.667 197.531C354.337 198.521 354.007 199.511 353.667 200.531C353.445 202.423 353.26 204.32 353.104 206.219C352.978 207.709 352.978 207.709 352.85 209.23C352.79 209.989 352.729 210.749 352.667 211.531C351.677 211.861 350.687 212.191 349.667 212.531C349.113 198.713 349.113 198.713 352.667 193.531Z" fill="#ECE1CF"/>
<path d="M334.667 459.531C338.759 460.008 342.683 460.473 346.667 461.531C347.373 461.708 348.079 461.884 348.807 462.066C350.76 462.554 352.713 463.043 354.667 463.531C354.667 463.861 354.667 464.191 354.667 464.531C347.649 466.326 341.538 464.36 334.667 462.531C334.667 461.541 334.667 460.551 334.667 459.531Z" fill="#ECE1CF"/>
<path d="M76.6665 353.531C77.3265 354.191 77.9865 354.851 78.6665 355.531C76.7927 355.871 74.9174 356.202 73.0415 356.531C71.9974 356.717 70.9533 356.902 69.8775 357.093C66.7608 357.518 63.8072 357.606 60.6665 357.531C60.3365 356.541 60.0065 355.551 59.6665 354.531C61.7482 354.167 63.8319 353.815 65.9165 353.468C67.6568 353.173 67.6568 353.173 69.4322 352.871C72.3173 352.568 74.0122 352.466 76.6665 353.531Z" fill="#ECE1CF"/>
<path d="M323.667 363.531C329.541 368.116 334.524 373.318 338.667 379.531C335.667 379.531 335.667 379.531 333.292 377.519C332.425 376.636 331.559 375.753 330.667 374.844C329.8 373.973 328.934 373.103 328.042 372.207C325.865 369.754 324.237 367.398 322.667 364.531C322.997 364.201 323.327 363.871 323.667 363.531Z" fill="#ECE1CF"/>
<path d="M244.667 409.531C245.327 410.191 245.987 410.851 246.667 411.531C246.322 415.613 244.69 418.733 242.729 422.281C242.204 423.245 241.68 424.209 241.139 425.203C239.667 427.531 239.667 427.531 237.667 428.531C238.08 423.29 240.097 419.368 242.51 414.801C243.772 412.464 243.772 412.464 244.667 409.531Z" fill="#ECE1CF"/>
<path d="M500.667 114.531C497.949 117.249 495.593 117.416 491.854 118.219C490.631 118.491 489.407 118.763 488.147 119.043C484.898 119.499 482.789 119.417 479.667 118.531C482.884 116.764 486.054 115.761 489.604 114.844C491.134 114.436 491.134 114.436 492.694 114.019C495.721 113.522 497.732 113.726 500.667 114.531Z" fill="#ECE1CF"/>
<path d="M511.667 321.531C507.879 325.287 503.595 325.353 498.542 325.844C497.718 325.942 496.894 326.041 496.045 326.142C493.927 326.366 491.796 326.458 489.667 326.531C489.007 325.871 488.347 325.211 487.667 324.531C488.805 324.458 488.805 324.458 489.967 324.383C491.458 324.27 491.458 324.27 492.979 324.156C493.965 324.086 494.951 324.017 495.967 323.945C498.882 323.692 498.882 323.692 501.667 321.531C507.959 320.295 507.959 320.295 511.667 321.531Z" fill="#ECE1CF"/>
<path d="M44.6665 332.531C44.6665 333.191 44.6665 333.851 44.6665 334.531C38.313 336.565 33.2395 338.138 26.6665 336.531C29.5898 334.582 31.1774 334.05 34.5415 333.406C35.8061 333.155 35.8061 333.155 37.0962 332.898C39.6581 332.532 42.0826 332.466 44.6665 332.531Z" fill="#ECE1CF"/>
<path d="M346.667 330.531C347.327 330.861 347.987 331.191 348.667 331.531C346.792 335.406 346.792 335.406 345.667 336.531C345.595 337.883 345.583 339.239 345.604 340.594C345.625 341.893 345.645 343.192 345.667 344.531C344.347 344.201 343.027 343.871 341.667 343.531C341.051 336.269 341.051 336.269 344.167 332.531C344.992 331.871 345.817 331.211 346.667 330.531Z" fill="#ECE1CF"/>
<path d="M394.667 11.531C395.877 13.1404 395.877 13.1404 396.667 15.531C395.331 18.5466 395.331 18.5466 393.292 21.781C392.624 22.8587 391.956 23.9363 391.268 25.0466C390.74 25.8665 390.211 26.6863 389.667 27.531C389.007 27.201 388.347 26.871 387.667 26.531C389.212 21.0517 391.822 16.4167 394.667 11.531Z" fill="#ECE1CF"/>
<path d="M268.667 479.531C268.667 480.521 268.667 481.511 268.667 482.531C264.377 482.531 260.087 482.531 255.667 482.531C255.667 482.861 255.667 483.191 255.667 483.531C252.792 483.656 252.792 483.656 249.667 483.531C249.007 482.871 248.347 482.211 247.667 481.531C249.853 481.191 252.041 480.86 254.229 480.531C255.447 480.345 256.665 480.16 257.92 479.969C261.543 479.545 265.024 479.456 268.667 479.531Z" fill="#ECE1CF"/>
<path d="M127.667 354.531C138.225 357.422 138.225 357.422 142.667 360.531C142.337 361.191 142.007 361.851 141.667 362.531C136.946 360.988 132.25 359.453 127.667 357.531C127.667 356.541 127.667 355.551 127.667 354.531Z" fill="#ECE1CF"/>
<path d="M237.667 323.531C238.327 323.531 238.987 323.531 239.667 323.531C239.721 325.781 239.759 328.031 239.792 330.281C239.815 331.534 239.838 332.787 239.862 334.078C239.682 337.259 239.357 338.896 237.667 341.531C236.683 335.875 236.293 330.272 236.667 324.531C236.997 324.201 237.327 323.871 237.667 323.531Z" fill="#ECE1CF"/>
<path d="M118.167 327.344C122.833 327.386 127.167 328.364 131.667 329.531C129.667 331.531 129.667 331.531 126.987 331.578C125.405 331.431 125.405 331.431 123.792 331.281C122.218 331.15 122.218 331.15 120.612 331.015C117.875 330.565 116.036 329.928 113.667 328.531C114.667 327.531 114.667 327.531 118.167 327.344Z" fill="#ECE1CF"/>
<path d="M169.667 8.53101C170.327 8.86101 170.987 9.19101 171.667 9.53101C172.609 12.3582 172.801 14.1628 172.792 17.0935C172.794 17.8785 172.797 18.6636 172.799 19.4724C172.667 21.531 172.667 21.531 171.667 23.531C170.677 23.531 169.687 23.531 168.667 23.531C168.64 21.2186 168.62 18.906 168.604 16.5935C168.592 15.3057 168.581 14.018 168.569 12.6912C168.667 9.53101 168.667 9.53101 169.667 8.53101Z" fill="#ECE1CF"/>
<path d="M181.667 508.531C182.987 508.861 184.307 509.191 185.667 509.531C178.737 514.976 178.737 514.976 171.667 520.531C171.337 519.541 171.007 518.551 170.667 517.531C172.403 515.995 174.156 514.478 175.917 512.969C176.891 512.122 177.866 511.275 178.87 510.402C179.793 509.785 180.716 509.167 181.667 508.531Z" fill="#ECE1CF"/>
<path d="M221.667 397.531C222.91 401.261 222.218 402.473 220.854 406.094C220.497 407.064 220.14 408.035 219.772 409.035C218.667 411.531 218.667 411.531 216.667 413.531C215.479 410.102 215.864 408.153 217.104 404.781C217.391 403.982 217.679 403.183 217.975 402.359C218.203 401.756 218.431 401.153 218.667 400.531C219.327 400.531 219.987 400.531 220.667 400.531C220.997 399.541 221.327 398.551 221.667 397.531Z" fill="#ECE1CF"/>
<path d="M221.667 253.531C226.164 257.186 230.295 260.79 233.667 265.531C233.337 266.521 233.007 267.511 232.667 268.531C228.707 264.241 224.747 259.951 220.667 255.531C220.997 254.871 221.327 254.211 221.667 253.531Z" fill="#ECE1CF"/>
<path d="M136.667 214.531C137.327 215.191 137.987 215.851 138.667 216.531C137.24 218.373 135.8 220.204 134.354 222.031C133.554 223.052 132.753 224.073 131.928 225.125C131.182 225.919 130.436 226.713 129.667 227.531C128.677 227.531 127.687 227.531 126.667 227.531C129.642 222.839 132.98 218.684 136.667 214.531Z" fill="#ECE1CF"/>
<path d="M457.667 150.531C457.667 151.191 457.667 151.851 457.667 152.531C455.73 153.035 453.792 153.534 451.854 154.031C450.775 154.309 449.696 154.588 448.585 154.875C445.667 155.531 445.667 155.531 442.667 155.531C442.667 154.541 442.667 153.551 442.667 152.531C444.601 152 446.539 151.482 448.479 150.969C449.558 150.679 450.637 150.388 451.749 150.09C454.667 149.531 454.667 149.531 457.667 150.531Z" fill="#ECE1CF"/>
<path d="M91.6665 102.531C88.3417 105.272 84.836 106.955 80.9165 108.719C79.7461 109.248 78.5756 109.778 77.3697 110.324C76.4776 110.722 75.5856 111.121 74.6665 111.531C74.0065 110.871 73.3465 110.211 72.6665 109.531C74.8898 108.352 77.119 107.188 79.354 106.031C79.9799 105.697 80.6057 105.363 81.2505 105.019C84.8713 103.161 87.5806 102.094 91.6665 102.531Z" fill="#ECE1CF"/>
<path d="M99.6665 445.531C100.657 445.861 101.647 446.191 102.667 446.531C101.021 448.225 99.3623 449.888 97.6665 451.531C97.1625 452.02 96.6585 452.508 96.1392 453.011C94.604 454.406 94.604 454.406 91.6665 456.531C89.4829 456.164 89.4829 456.164 87.6665 455.531C89.594 453.831 91.532 452.146 93.479 450.469C94.2998 449.741 94.2998 449.741 95.1372 448.998C96.5826 447.763 98.1208 446.638 99.6665 445.531Z" fill="#ECE1CF"/>
<path d="M360.667 316.531C361.657 316.861 362.647 317.191 363.667 317.531C356.202 326.587 356.202 326.587 351.667 328.531C351.007 328.201 350.347 327.871 349.667 327.531C353.297 323.901 356.927 320.271 360.667 316.531Z" fill="#ECE1CF"/>
<path d="M333.667 311.531C334.327 312.521 334.987 313.511 335.667 314.531C332.419 318.925 330.312 321.549 324.667 322.531C323.677 321.871 322.687 321.211 321.667 320.531C322.718 320.16 323.77 319.789 324.854 319.406C329.045 317.643 331.007 315.158 333.667 311.531Z" fill="#ECE1CF"/>
<path d="M369.667 178.531C370.327 178.861 370.987 179.191 371.667 179.531C367.968 183.453 364.242 186.65 359.667 189.531C358.677 189.201 357.687 188.871 356.667 188.531C365.589 180.45 365.589 180.45 369.667 178.531Z" fill="#ECE1CF"/>
<path d="M132.667 170.531C133.327 170.861 133.987 171.191 134.667 171.531C133.295 175.208 131.63 178.484 129.604 181.844C129.077 182.727 128.55 183.61 128.006 184.519C127.564 185.183 127.122 185.847 126.667 186.531C126.337 186.531 126.007 186.531 125.667 186.531C125.951 179.857 128.745 175.82 132.667 170.531Z" fill="#ECE1CF"/>
<path d="M433.667 286.531C437.328 287.158 440.548 288.176 443.979 289.594C444.862 289.956 445.745 290.318 446.655 290.691C447.319 290.968 447.983 291.245 448.667 291.531C447.677 293.016 447.677 293.016 446.667 294.531C442.047 292.551 437.427 290.571 432.667 288.531C432.997 287.871 433.327 287.211 433.667 286.531Z" fill="#ECE1CF"/>
<path d="M145.667 200.531C146.657 200.531 147.647 200.531 148.667 200.531C147.076 205.62 143.922 209.406 140.667 213.531C140.007 212.871 139.347 212.211 138.667 211.531C139.758 209.69 140.865 207.858 141.979 206.031C142.594 205.01 143.209 203.989 143.842 202.937C144.444 202.143 145.046 201.349 145.667 200.531Z" fill="#ECE1CF"/>
<path d="M167.667 24.531C168.327 25.851 168.987 27.171 169.667 28.531C168.331 31.3279 168.331 31.3279 166.292 34.281C165.624 35.2658 164.956 36.2507 164.268 37.2654C163.74 38.013 163.211 38.7607 162.667 39.531C161.677 39.201 160.687 38.871 159.667 38.531C162.307 33.911 164.947 29.291 167.667 24.531Z" fill="#ECE1CF"/>
<path d="M3.66653 492.531C4.65653 492.531 5.64653 492.531 6.66653 492.531C7.53234 494.463 8.38383 496.402 9.22903 498.344C9.94253 499.962 9.94253 499.962 10.6704 501.613C11.6665 504.531 11.6665 504.531 10.6665 507.531C8.11426 504.459 6.77877 501.546 5.47903 497.781C5.13485 496.796 4.79068 495.811 4.43607 494.797C4.18212 494.049 3.92818 493.301 3.66653 492.531Z" fill="#ECE1CF"/>
<path d="M464.667 454.531C472.092 455.521 472.092 455.521 479.667 456.531C479.997 457.521 480.327 458.511 480.667 459.531C478.937 459.389 477.208 459.242 475.479 459.094C474.035 458.972 474.035 458.972 472.561 458.847C469.88 458.554 467.3 458.104 464.667 457.531C464.667 456.541 464.667 455.551 464.667 454.531Z" fill="#ECE1CF"/>
<path d="M512.667 296.531C512.337 297.191 512.007 297.851 511.667 298.531C509.126 299.007 506.666 299.371 504.104 299.656C503.393 299.742 502.682 299.829 501.95 299.918C500.19 300.13 498.428 300.332 496.667 300.531C496.337 299.541 496.007 298.551 495.667 297.531C496.698 297.572 497.729 297.614 498.792 297.656C502.613 297.717 502.613 297.717 505.854 296.469C508.744 295.505 509.881 295.46 512.667 296.531Z" fill="#ECE1CF"/>
<path d="M198.667 25.531C199.327 26.521 199.987 27.511 200.667 28.531C198.027 32.161 195.387 35.791 192.667 39.531C192.007 39.201 191.347 38.871 190.667 38.531C192.257 33.4416 195.411 29.6564 198.667 25.531Z" fill="#ECE1CF"/>
<path d="M87.6665 493.531C88.3265 493.531 88.9865 493.531 89.6665 493.531C89.3365 494.521 89.0065 495.511 88.6665 496.531C88.0065 496.531 87.3465 496.531 86.6665 496.531C86.6665 497.521 86.6665 498.511 86.6665 499.531C86.0065 499.531 85.3465 499.531 84.6665 499.531C84.419 500.109 84.1715 500.686 83.9165 501.281C82.4997 503.831 80.7903 505.549 78.6665 507.531C78.3365 506.871 78.0065 506.211 77.6665 505.531C79.145 503.718 80.6244 501.906 82.104 500.094C83.3396 498.58 83.3396 498.58 84.6001 497.035C86.6665 494.531 86.6665 494.531 87.6665 493.531Z" fill="#ECE1CF"/>
<path d="M219.667 378.531C219.997 379.851 220.327 381.171 220.667 382.531C221.657 382.531 222.647 382.531 223.667 382.531C223.667 386.161 223.667 389.791 223.667 393.531C222.347 392.871 221.027 392.211 219.667 391.531C219.667 387.241 219.667 382.951 219.667 378.531Z" fill="#ECE1CF"/>
<path d="M258.667 293.469C262.306 294.757 263.554 296.363 265.667 299.531C264.677 299.861 263.687 300.191 262.667 300.531C262.007 299.541 261.347 298.551 260.667 297.531C257.708 297.281 257.708 297.281 254.667 297.531C253.677 297.531 252.687 297.531 251.667 297.531C253.961 294.619 254.87 293.548 258.667 293.469Z" fill="#ECE1CF"/>
<path d="M59.6665 118.531C54.7165 120.181 49.7665 121.831 44.6665 123.531C44.6665 122.541 44.6665 121.551 44.6665 120.531C46.4089 119.804 48.1608 119.1 49.9165 118.406C50.8911 118.012 51.8656 117.617 52.8697 117.211C55.6665 116.531 55.6665 116.531 59.6665 118.531Z" fill="#ECE1CF"/>
<path d="M215.667 10.531C215.997 11.521 216.327 12.511 216.667 13.531C214.667 16.531 214.667 16.531 211.667 17.531C211.337 18.191 211.007 18.851 210.667 19.531C208.604 20.156 208.604 20.156 206.667 20.531C207.04 17.8053 207.458 16.7228 209.514 14.8279C210.245 14.3174 210.976 13.8069 211.729 13.281C212.463 12.7602 213.196 12.2394 213.952 11.7029C214.518 11.3162 215.083 10.9294 215.667 10.531Z" fill="#ECE1CF"/>
<path d="M446.667 506.531C451.756 508.121 455.541 511.276 459.667 514.531C459.007 515.191 458.347 515.851 457.667 516.531C453.707 513.891 449.747 511.251 445.667 508.531C445.997 507.871 446.327 507.211 446.667 506.531Z" fill="#ECE1CF"/>
<path d="M393.667 394.531C399.109 394.871 402.603 398.234 406.667 401.531C405.677 402.191 404.687 402.851 403.667 403.531C401.997 402.222 400.331 400.909 398.667 399.594C397.738 398.863 396.81 398.132 395.854 397.379C395.132 396.769 394.41 396.159 393.667 395.531C393.667 395.201 393.667 394.871 393.667 394.531Z" fill="#ECE1CF"/>
<path d="M152.667 387.531C153.657 388.191 154.647 388.851 155.667 389.531C155.357 390.99 155.044 392.448 154.729 393.906C154.555 394.718 154.381 395.53 154.202 396.367C153.667 398.531 153.667 398.531 152.667 400.531C151.677 400.531 150.687 400.531 149.667 400.531C150.488 396.148 151.568 391.852 152.667 387.531Z" fill="#ECE1CF"/>
<path d="M323.667 217.531C324.657 217.861 325.647 218.191 326.667 218.531C327.835 221.254 327.835 221.254 328.854 224.594C329.198 225.698 329.542 226.803 329.897 227.941C330.151 228.796 330.405 229.65 330.667 230.531C328.776 230.269 328.776 230.269 326.667 229.531C325.62 227.824 325.62 227.824 324.917 225.719C324.674 225.031 324.432 224.344 324.182 223.636C323.667 221.531 323.667 221.531 323.667 217.531Z" fill="#ECE1CF"/>
<path d="M427.667 156.531C427.997 157.191 428.327 157.851 428.667 158.531C429.327 158.861 429.987 159.191 430.667 159.531C429.064 160.036 427.459 160.535 425.854 161.031C424.514 161.449 424.514 161.449 423.147 161.875C420.667 162.531 420.667 162.531 417.667 162.531C417.667 161.541 417.667 160.551 417.667 159.531C422.617 158.046 422.617 158.046 427.667 156.531Z" fill="#ECE1CF"/>
<path d="M139.667 96.531C140.657 96.861 141.647 97.191 142.667 97.531C139.584 100.79 136.75 103.597 132.667 105.531C131.677 105.201 130.687 104.871 129.667 104.531C131.26 103.165 132.867 101.813 134.479 100.469C135.372 99.7144 136.266 98.9603 137.186 98.1833C138.414 97.3654 138.414 97.3654 139.667 96.531Z" fill="#ECE1CF"/>
<path d="M98.6665 481.531C98.9965 482.521 99.3265 483.511 99.6665 484.531C98.6765 486.016 98.6765 486.016 97.6665 487.531C97.0065 487.531 96.3465 487.531 95.6665 487.531C95.3984 488.15 95.1303 488.769 94.854 489.406C93.6665 491.531 93.6665 491.531 90.6665 493.531C90.6665 489.772 91.6174 489.118 94.104 486.406C94.7421 485.702 95.3802 484.998 96.0376 484.273C96.9024 483.348 97.7712 482.426 98.6665 481.531Z" fill="#ECE1CF"/>
<path d="M141.667 444.531C142.327 445.191 142.987 445.851 143.667 446.531C140.54 449.925 138.101 452.137 133.667 453.531C134.052 450.992 134.368 449.803 136.295 448.047C136.934 447.629 137.572 447.211 138.229 446.781C138.87 446.353 139.51 445.925 140.17 445.484C140.664 445.17 141.158 444.855 141.667 444.531Z" fill="#ECE1CF"/>
<path d="M392.667 259.531C396.372 260.134 398.526 261.756 401.417 264.094C402.615 265.055 402.615 265.055 403.838 266.035C404.743 266.775 404.743 266.775 405.667 267.531C403.963 268.273 403.963 268.273 401.667 268.531C399.307 266.914 399.307 266.914 396.917 264.656C396.117 263.916 395.318 263.176 394.495 262.414C392.667 260.531 392.667 260.531 392.667 259.531Z" fill="#ECE1CF"/>
<path d="M168.667 167.531C169.657 167.861 170.647 168.191 171.667 168.531C168.697 171.831 165.727 175.131 162.667 178.531C162.007 178.201 161.347 177.871 160.667 177.531C162.317 173.239 165.404 170.652 168.667 167.531Z" fill="#ECE1CF"/>
<path d="M333.667 88.531C334.327 89.191 334.987 89.851 335.667 90.531C334.677 90.531 333.687 90.531 332.667 90.531C332.46 91.1085 332.254 91.686 332.042 92.281C330.139 95.3941 327.804 96.7384 324.667 98.531C323.677 98.531 322.687 98.531 321.667 98.531C321.667 97.871 321.667 97.211 321.667 96.531C323.641 95.0678 325.599 93.7239 327.667 92.406C328.239 92.0335 328.811 91.6609 329.401 91.2771C330.819 90.3555 332.242 89.4424 333.667 88.531Z" fill="#ECE1CF"/>
<path d="M167.667 520.531C167.997 521.521 168.327 522.511 168.667 523.531C167.382 525.037 166.088 526.536 164.792 528.031C164.072 528.866 163.353 529.702 162.612 530.562C161.97 531.212 161.328 531.862 160.667 532.531C160.007 532.531 159.347 532.531 158.667 532.531C159.216 528.656 160.942 526.935 163.729 524.281C164.463 523.575 165.196 522.868 165.952 522.14C166.518 521.609 167.083 521.078 167.667 520.531Z" fill="#ECE1CF"/>
<path d="M300.667 454.531C310.077 454.347 310.077 454.347 314.667 455.531C314.337 456.521 314.007 457.511 313.667 458.531C312.061 458.444 310.457 458.336 308.854 458.219C307.514 458.132 307.514 458.132 306.147 458.043C303.36 457.468 302.425 456.71 300.667 454.531Z" fill="#ECE1CF"/>
<path d="M162.667 346.531C166.435 347.083 168.012 348.571 170.479 351.406C171.104 352.105 171.729 352.803 172.374 353.523C172.8 354.186 173.227 354.848 173.667 355.531C173.337 356.521 173.007 357.511 172.667 358.531C172.13 357.85 171.594 357.17 171.042 356.469C168.316 353.097 165.502 349.81 162.667 346.531Z" fill="#ECE1CF"/>
<path d="M216.667 306.531C217.327 307.521 217.987 308.511 218.667 309.531C218.206 311.574 218.206 311.574 217.292 313.719C216.995 314.434 216.699 315.149 216.393 315.886C216.153 316.429 215.914 316.972 215.667 317.531C214.347 317.201 213.027 316.871 211.667 316.531C213.317 313.231 214.967 309.931 216.667 306.531Z" fill="#ECE1CF"/>
<path d="M50.6665 256.531C50.6665 257.521 50.6665 258.511 50.6665 259.531C46.7065 261.181 42.7465 262.831 38.6665 264.531C38.3365 263.871 38.0065 263.211 37.6665 262.531C38.6565 262.531 39.6465 262.531 40.6665 262.531C40.6665 261.871 40.6665 261.211 40.6665 260.531C41.9557 259.859 43.2479 259.194 44.5415 258.531C45.2608 258.16 45.9801 257.789 46.7212 257.406C48.6665 256.531 48.6665 256.531 50.6665 256.531Z" fill="#ECE1CF"/>
<path d="M242.667 233.531C246.989 236.871 249.841 239.859 252.667 244.531C249.161 243.967 247.677 242.861 245.417 240.156C244.896 239.55 244.375 238.944 243.838 238.32C242.667 236.531 242.667 236.531 242.667 233.531Z" fill="#ECE1CF"/>
<path d="M187.667 196.531C187.997 196.531 188.327 196.531 188.667 196.531C189.029 198.154 189.381 199.78 189.729 201.406C189.926 202.311 190.124 203.216 190.327 204.148C190.667 206.531 190.667 206.531 189.667 208.531C189.337 209.521 189.007 210.511 188.667 211.531C188.133 209.952 187.615 208.367 187.104 206.781C186.814 205.899 186.524 205.018 186.225 204.109C185.646 201.435 185.714 200.064 186.667 197.531C186.997 197.201 187.327 196.871 187.667 196.531Z" fill="#ECE1CF"/>
<path d="M384.667 29.531C385.327 30.851 385.987 32.171 386.667 33.531C384.687 36.501 382.707 39.471 380.667 42.531C380.007 41.541 379.347 40.551 378.667 39.531C380.647 36.231 382.627 32.931 384.667 29.531Z" fill="#ECE1CF"/>
<path d="M418.667 440.531C420.484 441.121 422.295 441.728 424.104 442.344C425.113 442.68 426.123 443.016 427.163 443.363C427.989 443.748 428.815 444.134 429.667 444.531C429.997 445.521 430.327 446.511 430.667 447.531C425.597 446.877 421.247 444.676 416.667 442.531C417.327 441.871 417.987 441.211 418.667 440.531Z" fill="#ECE1CF"/>
<path d="M537.667 282.531C537.997 283.851 538.327 285.171 538.667 286.531C534.212 289.501 534.212 289.501 529.667 292.531C528.677 291.871 527.687 291.211 526.667 290.531C527.955 289.692 529.247 288.86 530.542 288.031C531.261 287.567 531.98 287.103 532.721 286.625C534.667 285.531 534.667 285.531 536.667 285.531C536.997 284.541 537.327 283.551 537.667 282.531Z" fill="#ECE1CF"/>
<path d="M537.667 458.531C539.682 460.172 539.682 460.172 541.667 462.531C541.838 465.328 541.838 465.328 541.417 468.281C541.288 469.266 541.159 470.251 541.026 471.265C540.907 472.013 540.789 472.761 540.667 473.531C540.007 473.201 539.347 472.871 538.667 472.531C538.252 469.371 538.252 469.371 538.042 465.469C537.967 464.178 537.892 462.888 537.815 461.558C537.766 460.559 537.717 459.56 537.667 458.531Z" fill="#ECE1CF"/>
<path d="M143.667 362.531C147.941 364.114 149.932 367.037 152.667 370.531C151.677 372.016 151.677 372.016 150.667 373.531C150.257 372.977 149.847 372.422 149.424 371.851C148.886 371.127 148.347 370.402 147.792 369.656C147.258 368.937 146.724 368.217 146.174 367.476C144.668 365.448 144.668 365.448 142.667 363.531C142.997 363.201 143.327 362.871 143.667 362.531Z" fill="#ECE1CF"/>
<path d="M6.66652 158.531C7.32652 159.521 7.98652 160.511 8.66652 161.531C7.37687 162.907 6.03963 164.239 4.66652 165.531C4.00652 165.531 3.34653 165.531 2.66653 165.531C2.33653 167.511 2.00652 169.491 1.66652 171.531C1.33652 171.531 1.00652 171.531 0.66652 171.531C0.341307 166.87 0.847033 164.29 3.66655 160.531C4.65655 159.871 5.64652 159.211 6.66652 158.531Z" fill="#ECE1CF"/>
<path d="M52.6665 144.531C53.3265 145.521 53.9865 146.511 54.6665 147.531C53.3981 148.037 52.1267 148.536 50.854 149.031C49.7925 149.449 49.7925 149.449 48.7095 149.875C46.6665 150.531 46.6665 150.531 43.6665 150.531C44.6665 147.531 44.6665 147.531 46.5142 146.582C47.2451 146.338 47.976 146.095 48.729 145.844C49.4625 145.592 50.196 145.341 50.9517 145.082C51.8005 144.809 51.8005 144.809 52.6665 144.531Z" fill="#ECE1CF"/>
<path d="M466.667 146.531C466.997 147.191 467.327 147.851 467.667 148.531C468.327 148.861 468.987 149.191 469.667 149.531C465.843 150.954 462.754 151.771 458.667 151.531C458.667 150.541 458.667 149.551 458.667 148.531C461.307 147.871 463.947 147.211 466.667 146.531Z" fill="#ECE1CF"/>
<path d="M305.667 77.531C304.667 80.531 304.667 80.531 302.381 81.9177C301.465 82.347 300.548 82.7762 299.604 83.2185C298.685 83.6555 297.766 84.0925 296.819 84.5427C296.109 84.8689 295.398 85.195 294.667 85.531C294.667 84.541 294.667 83.551 294.667 82.531C296.122 81.6925 297.581 80.8604 299.042 80.031C299.854 79.5669 300.666 79.1029 301.502 78.6248C303.667 77.531 303.667 77.531 305.667 77.531Z" fill="#ECE1CF"/>
<path d="M57.6665 531.531C58.6565 531.861 59.6465 532.191 60.6665 532.531C60.3365 533.851 60.0065 535.171 59.6665 536.531C61.9765 536.531 64.2865 536.531 66.6665 536.531C66.0065 537.191 65.3465 537.851 64.6665 538.531C61.0415 538.156 61.0415 538.156 57.6665 537.531C57.2843 535.875 56.9526 534.206 56.6665 532.531C56.9965 532.201 57.3265 531.871 57.6665 531.531Z" fill="#ECE1CF"/>
<path d="M245.667 483.531C245.007 483.531 244.347 483.531 243.667 483.531C243.667 484.191 243.667 484.851 243.667 485.531C240.037 486.191 236.407 486.851 232.667 487.531C232.997 486.541 233.327 485.551 233.667 484.531C235.627 483.765 235.627 483.765 238.042 483.281C238.833 483.111 239.625 482.941 240.44 482.765C242.667 482.531 242.667 482.531 245.667 483.531Z" fill="#ECE1CF"/>
<path d="M180.667 379.531C180.997 379.531 181.327 379.531 181.667 379.531C181.721 381.114 181.759 382.697 181.792 384.281C181.815 385.163 181.838 386.044 181.862 386.953C181.658 389.645 181.032 391.23 179.667 393.531C179.007 393.531 178.347 393.531 177.667 393.531C177.542 390.656 177.542 390.656 177.667 387.531C178.327 386.871 178.987 386.211 179.667 385.531C180.064 383.543 180.404 381.542 180.667 379.531Z" fill="#ECE1CF"/>
<path d="M18.6665 364.531C18.9965 365.521 19.3265 366.511 19.6665 367.531C16.0468 368.847 13.5709 369.531 9.66653 369.531C9.66653 368.541 9.66653 367.551 9.66653 366.531C16.4165 364.531 16.4165 364.531 18.6665 364.531Z" fill="#ECE1CF"/>
<path d="M463.292 320.969C464.517 321.121 464.517 321.121 465.768 321.277C466.708 321.403 466.708 321.403 467.667 321.531C467.667 322.521 467.667 323.511 467.667 324.531C463.15 324.608 459.076 324.633 454.667 323.531C457.726 320.472 459.135 320.434 463.292 320.969Z" fill="#ECE1CF"/>
<path d="M272.667 307.531C276.263 311.025 279.501 314.642 282.667 318.531C278.985 318.531 278.513 317.809 275.979 315.281C275.356 314.678 274.734 314.074 274.092 313.453C272.667 311.531 272.667 311.531 272.667 307.531Z" fill="#ECE1CF"/>
<path d="M454.667 125.531C453.667 127.531 453.667 127.531 451.741 128.234C450.953 128.415 450.166 128.595 449.354 128.781C448.574 128.972 447.794 129.163 446.991 129.359C444.261 129.561 442.969 128.943 440.667 127.531C442.434 127 444.206 126.481 445.979 125.969C446.965 125.679 447.951 125.388 448.967 125.09C451.667 124.531 451.667 124.531 454.667 125.531Z" fill="#ECE1CF"/>
<path d="M202.667 463.531C203.327 463.861 203.987 464.191 204.667 464.531C204.667 465.521 204.667 466.511 204.667 467.531C206.647 467.201 208.627 466.871 210.667 466.531C210.337 467.521 210.007 468.511 209.667 469.531C207.354 470.219 207.354 470.219 204.667 470.531C202.792 469.344 202.792 469.344 201.667 467.531C201.979 465.344 201.979 465.344 202.667 463.531Z" fill="#ECE1CF"/>
<path d="M186.667 449.531C186.997 450.521 187.327 451.511 187.667 452.531C186.452 454.355 186.452 454.355 184.729 456.219C184.163 456.841 183.597 457.464 183.014 458.105C182.569 458.576 182.125 459.046 181.667 459.531C180.677 459.201 179.687 458.871 178.667 458.531C181.307 455.561 183.947 452.591 186.667 449.531Z" fill="#ECE1CF"/>
<path d="M175.667 365.531C176.657 365.531 177.647 365.531 178.667 365.531C179.983 369.151 180.667 371.627 180.667 375.531C179.677 375.531 178.687 375.531 177.667 375.531C177.007 372.231 176.347 368.931 175.667 365.531Z" fill="#ECE1CF"/>
<path d="M230.667 220.531C231.819 221.461 232.963 222.4 234.104 223.344C234.742 223.866 235.38 224.388 236.038 224.926C237.667 226.531 237.667 226.531 238.667 229.531C234.88 228.99 233.039 227.497 230.667 224.531C230.667 223.211 230.667 221.891 230.667 220.531Z" fill="#ECE1CF"/>
<path d="M380.667 172.531C381.327 173.521 381.987 174.511 382.667 175.531C381.377 176.203 380.085 176.868 378.792 177.531C378.072 177.902 377.353 178.274 376.612 178.656C374.667 179.531 374.667 179.531 372.667 179.531C372.667 178.541 372.667 177.551 372.667 176.531C375.307 175.211 377.947 173.891 380.667 172.531Z" fill="#ECE1CF"/>
<path d="M181.667 157.531C181.997 158.191 182.327 158.851 182.667 159.531C179.894 162.612 177.603 164.219 173.667 165.531C173.667 164.541 173.667 163.551 173.667 162.531C175.417 161.144 175.417 161.144 177.667 159.844C178.409 159.407 179.152 158.97 179.917 158.519C180.494 158.193 181.072 157.867 181.667 157.531Z" fill="#ECE1CF"/>
<path d="M188.667 39.531C189.327 40.521 189.987 41.511 190.667 42.531C189.017 45.171 187.367 47.811 185.667 50.531C185.007 50.201 184.347 49.871 183.667 49.531C185.001 45.9371 186.627 42.7761 188.667 39.531Z" fill="#ECE1CF"/>
<path d="M122.667 459.531C123.327 460.191 123.987 460.851 124.667 461.531C122.027 463.841 119.387 466.151 116.667 468.531C116.007 467.871 115.347 467.211 114.667 466.531C117.307 464.221 119.947 461.911 122.667 459.531Z" fill="#ECE1CF"/>
<path d="M395.667 429.531C400.175 430.789 403.158 432.435 406.667 435.531C403.667 436.531 403.667 436.531 401.405 435.535C400.604 435.059 399.804 434.584 398.979 434.094C398.171 433.62 397.363 433.147 396.53 432.66C395.915 432.287 395.3 431.915 394.667 431.531C394.997 430.871 395.327 430.211 395.667 429.531Z" fill="#ECE1CF"/>
<path d="M527.667 292.531C524.312 294.767 521.603 295.702 517.667 296.531C515.444 295.578 515.444 295.578 513.667 294.531C523.077 290.902 523.077 290.902 527.667 292.531Z" fill="#ECE1CF"/>
<path d="M211.667 242.531C214.333 245.198 217 247.864 219.667 250.531C219.337 251.521 219.007 252.511 218.667 253.531C217.488 252.461 216.324 251.374 215.167 250.281C214.517 249.678 213.867 249.074 213.198 248.453C211.667 246.531 211.667 246.531 211.667 242.531Z" fill="#ECE1CF"/>
<path d="M120.667 191.531C121.327 192.521 121.987 193.511 122.667 194.531C121.017 197.501 119.367 200.471 117.667 203.531C117.007 203.201 116.347 202.871 115.667 202.531C117.116 198.74 118.818 195.144 120.667 191.531Z" fill="#ECE1CF"/>
<path d="M21.6665 154.531C22.3265 155.521 22.9865 156.511 23.6665 157.531C20.0468 158.847 17.5709 159.531 13.6665 159.531C13.6665 158.541 13.6665 157.551 13.6665 156.531C16.3065 155.871 18.9465 155.211 21.6665 154.531Z" fill="#ECE1CF"/>
<path d="M383.667 145.531C384.327 145.861 384.987 146.191 385.667 146.531C385.667 147.191 385.667 147.851 385.667 148.531C384.403 149.089 383.13 149.627 381.854 150.156C381.146 150.458 380.439 150.759 379.71 151.07C379.035 151.222 378.361 151.374 377.667 151.531C376.677 150.871 375.687 150.211 374.667 149.531C376.12 148.834 377.58 148.149 379.042 147.469C380.26 146.894 380.26 146.894 381.502 146.308C382.217 146.052 382.931 145.795 383.667 145.531Z" fill="#ECE1CF"/>
<path d="M252.667 102.531C251.322 105.22 250.092 105.32 247.292 106.281C246.104 106.706 246.104 106.706 244.893 107.14C242.667 107.531 242.667 107.531 239.667 105.531C241.266 104.832 242.871 104.147 244.479 103.469C245.372 103.086 246.266 102.703 247.186 102.308C249.667 101.531 249.667 101.531 252.667 102.531Z" fill="#ECE1CF"/>
<path d="M174.667 462.531C175.327 463.521 175.987 464.511 176.667 465.531C174.687 467.841 172.707 470.151 170.667 472.531C170.007 472.201 169.347 471.871 168.667 471.531C170.194 468.095 172.266 465.412 174.667 462.531Z" fill="#ECE1CF"/>
<path d="M263.479 454.469C264.455 454.478 265.431 454.487 266.436 454.496C267.172 454.507 267.908 454.519 268.667 454.531C268.667 454.861 268.667 455.191 268.667 455.531C265.697 455.531 262.727 455.531 259.667 455.531C259.667 456.191 259.667 456.851 259.667 457.531C257.687 457.861 255.707 458.191 253.667 458.531C253.337 457.541 253.007 456.551 252.667 455.531C256.34 454.678 259.711 454.423 263.479 454.469Z" fill="#ECE1CF"/>
<path d="M347.667 346.531C350.314 349.109 352.611 351.447 354.667 354.531C351.667 354.531 351.667 354.531 350.061 353C349.539 352.35 349.017 351.7 348.479 351.031C347.949 350.381 347.419 349.732 346.874 349.062C346.475 348.557 346.077 348.052 345.667 347.531C346.327 347.201 346.987 346.871 347.667 346.531Z" fill="#ECE1CF"/>
<path d="M258.667 250.531C262.297 253.181 264.565 255.549 266.667 259.531C262.88 258.99 261.039 257.497 258.667 254.531C258.667 253.211 258.667 251.891 258.667 250.531Z" fill="#ECE1CF"/>
<path d="M405.667 138.531C405.337 139.521 405.007 140.511 404.667 141.531C401.292 142.844 401.292 142.844 397.667 143.531C396.677 142.871 395.687 142.211 394.667 141.531C395.935 141.025 397.206 140.526 398.479 140.031C399.541 139.613 399.541 139.613 400.624 139.187C402.667 138.531 402.667 138.531 405.667 138.531Z" fill="#ECE1CF"/>
<path d="M69.6665 111.531C68.6665 114.531 68.6665 114.531 65.2915 116.344C63.4972 116.931 63.4972 116.931 61.6665 117.531C60.6765 116.871 59.6865 116.211 58.6665 115.531C60.1228 114.86 61.5816 114.194 63.0415 113.531C63.8536 113.16 64.6658 112.789 65.5025 112.406C67.6665 111.531 67.6665 111.531 69.6665 111.531Z" fill="#ECE1CF"/>
<path d="M270.667 94.531C269.667 97.531 269.667 97.531 267.924 98.5505C267.221 98.8122 266.517 99.0739 265.792 99.3435C265.093 99.6181 264.394 99.8926 263.674 100.176C261.667 100.531 261.667 100.531 258.667 98.531C260.29 97.8601 261.915 97.1944 263.542 96.531C264.446 96.1598 265.351 95.7885 266.284 95.406C268.667 94.531 268.667 94.531 270.667 94.531Z" fill="#ECE1CF"/>
<path d="M205.667 18.531C206.987 19.191 208.307 19.851 209.667 20.531C207.357 22.841 205.047 25.151 202.667 27.531C202.667 23.5672 202.819 21.3786 205.667 18.531Z" fill="#ECE1CF"/>
<path d="M63.6665 328.531C65.6465 328.531 67.6265 328.531 69.6665 328.531C69.9965 329.191 70.3265 329.851 70.6665 330.531C67.5395 332.095 64.0867 331.931 60.6665 331.531C59.6765 330.871 58.6865 330.211 57.6665 329.531C60.6365 330.026 60.6365 330.026 63.6665 330.531C63.6665 329.871 63.6665 329.211 63.6665 328.531Z" fill="#ECE1CF"/>
<path d="M193.667 220.531C194.657 220.531 195.647 220.531 196.667 220.531C199.767 225.989 199.767 225.989 199.256 228.734C199.062 229.327 198.867 229.92 198.667 230.531C197.828 229.243 196.996 227.95 196.167 226.656C195.702 225.937 195.238 225.217 194.76 224.476C193.667 222.531 193.667 222.531 193.667 220.531Z" fill="#ECE1CF"/>
<path d="M79.6665 133.531C80.3265 134.521 80.9865 135.511 81.6665 136.531C77.2115 138.016 77.2115 138.016 72.6665 139.531C72.6665 138.541 72.6665 137.551 72.6665 136.531C74.9765 135.541 77.2865 134.551 79.6665 133.531Z" fill="#ECE1CF"/>
<path d="M155.667 43.531C156.327 44.521 156.987 45.511 157.667 46.531C156.017 48.511 154.367 50.491 152.667 52.531C151.677 52.201 150.687 51.871 149.667 51.531C151.647 48.891 153.627 46.251 155.667 43.531Z" fill="#ECE1CF"/>
<path d="M112.667 468.531C113.327 469.191 113.987 469.851 114.667 470.531C112.417 473.094 112.417 473.094 109.667 475.531C108.347 475.201 107.027 474.871 105.667 474.531C107.977 472.551 110.287 470.571 112.667 468.531Z" fill="#ECE1CF"/>
<path d="M233.667 430.531C234.657 430.861 235.647 431.191 236.667 431.531C233.697 435.491 233.697 435.491 230.667 439.531C230.007 438.871 229.347 438.211 228.667 437.531C230.317 435.221 231.967 432.911 233.667 430.531Z" fill="#ECE1CF"/>
<path d="M151.667 337.531C155.106 338.773 157.919 340.088 160.667 342.531C160.667 343.191 160.667 343.851 160.667 344.531C156.672 343.161 153.866 341.274 150.667 338.531C150.997 338.201 151.327 337.871 151.667 337.531Z" fill="#ECE1CF"/>
<path d="M372.667 303.531C373.327 304.191 373.987 304.851 374.667 305.531C372.687 307.841 370.707 310.151 368.667 312.531C368.007 311.871 367.347 311.211 366.667 310.531C368.647 308.221 370.627 305.911 372.667 303.531Z" fill="#ECE1CF"/>
<path d="M323.667 196.531C324.657 196.861 325.647 197.191 326.667 197.531C326.081 203.683 326.081 203.683 325.667 205.531C324.677 206.026 324.677 206.026 323.667 206.531C322.542 199.906 322.542 199.906 323.667 196.531Z" fill="#ECE1CF"/>
<path d="M456.667 426.531C461.122 427.521 461.122 427.521 465.667 428.531C464.677 430.016 464.677 430.016 463.667 431.531C461.027 430.871 458.387 430.211 455.667 429.531C455.997 428.541 456.327 427.551 456.667 426.531Z" fill="#ECE1CF"/>
<path d="M381.667 419.531C384.307 421.181 386.947 422.831 389.667 424.531C389.337 425.521 389.007 426.511 388.667 427.531C385.697 425.551 382.727 423.571 379.667 421.531C380.327 420.871 380.987 420.211 381.667 419.531Z" fill="#ECE1CF"/>
<path d="M386.667 386.531C390.034 387.924 391.652 389.51 393.667 392.531C392.677 393.026 392.677 393.026 391.667 393.531C389.687 391.881 387.707 390.231 385.667 388.531C385.997 387.871 386.327 387.211 386.667 386.531Z" fill="#ECE1CF"/>
<path d="M211.667 345.531C212.141 346.191 212.615 346.851 213.104 347.531C213.877 348.521 213.877 348.521 214.667 349.531C214.997 349.531 215.327 349.531 215.667 349.531C216.792 355.281 216.792 355.281 215.667 357.531C215.007 357.531 214.347 357.531 213.667 357.531C212.518 353.592 212.141 349.595 211.667 345.531Z" fill="#ECE1CF"/>
<path d="M533.667 314.531C539.328 316.008 539.328 316.008 541.042 318.656C541.248 319.275 541.454 319.894 541.667 320.531C540.677 320.531 539.687 320.531 538.667 320.531C538.667 319.871 538.667 319.211 538.667 318.531C535.697 318.036 535.697 318.036 532.667 317.531C532.997 316.541 533.327 315.551 533.667 314.531Z" fill="#ECE1CF"/>
<path d="M381.667 293.531C381.997 294.521 382.327 295.511 382.667 296.531C381.262 298.795 379.47 300.552 377.667 302.531C377.007 301.871 376.347 301.211 375.667 300.531C377.647 298.221 379.627 295.911 381.667 293.531Z" fill="#ECE1CF"/>
<path d="M350.667 213.531C351.657 213.531 352.647 213.531 353.667 213.531C354.987 216.171 356.307 218.811 357.667 221.531C356.347 221.201 355.027 220.871 353.667 220.531C351.917 216.969 351.917 216.969 350.667 213.531Z" fill="#ECE1CF"/>
<path d="M150.667 191.531C151.657 191.531 152.647 191.531 153.667 191.531C152.979 194.406 152.979 194.406 151.667 197.531C149.042 198.906 149.042 198.906 146.667 199.531C147.987 196.891 149.307 194.251 150.667 191.531Z" fill="#ECE1CF"/>
<path d="M179.667 53.531C180.657 53.861 181.647 54.191 182.667 54.531C182.007 55.191 181.347 55.851 180.667 56.531C179.929 57.7215 179.222 58.9316 178.542 60.156C177.613 61.8266 177.613 61.8266 176.667 63.531C176.007 62.541 175.347 61.551 174.667 60.531C176.317 58.221 177.967 55.911 179.667 53.531Z" fill="#ECE1CF"/>
<path d="M396.667 479.531C402.417 481.281 402.417 481.281 404.667 483.531C400.491 484.923 398.532 483.354 394.667 481.531C395.327 480.871 395.987 480.211 396.667 479.531Z" fill="#ECE1CF"/>
<path d="M409.667 404.531C413.042 405.717 415.314 406.807 417.667 409.531C417.007 410.191 416.347 410.851 415.667 411.531C412.667 409.719 412.667 409.719 409.667 407.531C409.667 406.541 409.667 405.551 409.667 404.531Z" fill="#ECE1CF"/>
<path d="M140.667 332.531C143.637 333.521 146.607 334.511 149.667 335.531C147.687 336.521 147.687 336.521 145.667 337.531C142.417 336.156 142.417 336.156 139.667 334.531C139.997 333.871 140.327 333.211 140.667 332.531Z" fill="#ECE1CF"/>
<path d="M70.6665 137.531C70.9965 138.191 71.3265 138.851 71.6665 139.531C71.3365 140.191 71.0065 140.851 70.6665 141.531C68.3525 142.262 66.0182 142.932 63.6665 143.531C63.6665 142.541 63.6665 141.551 63.6665 140.531C65.9765 139.541 68.2865 138.551 70.6665 137.531Z" fill="#ECE1CF"/>
<path d="M422.667 134.531C422.337 135.191 422.007 135.851 421.667 136.531C418.229 137.281 418.229 137.281 414.667 137.531C414.007 136.871 413.347 136.211 412.667 135.531C418.952 133.102 418.952 133.102 422.667 134.531Z" fill="#ECE1CF"/>
<path d="M106.667 119.531C106.997 120.521 107.327 121.511 107.667 122.531C105.917 124.094 105.917 124.094 103.667 125.531C101.417 125.219 101.417 125.219 99.6665 124.531C104.417 120.656 104.417 120.656 106.667 119.531Z" fill="#ECE1CF"/>
<path d="M212.667 116.531C212.667 117.521 212.667 118.511 212.667 119.531C210.357 120.191 208.047 120.851 205.667 121.531C205.007 120.871 204.347 120.211 203.667 119.531C210.417 116.531 210.417 116.531 212.667 116.531Z" fill="#ECE1CF"/>
<path d="M16.6665 513.531C19.1665 515.844 19.1665 515.844 21.6665 518.531C21.6665 519.521 21.6665 520.511 21.6665 521.531C19.6865 519.881 17.7065 518.231 15.6665 516.531C15.9965 515.541 16.3265 514.551 16.6665 513.531Z" fill="#ECE1CF"/>
<path d="M391.667 504.531C396.122 506.511 396.122 506.511 400.667 508.531C400.337 509.191 400.007 509.851 399.667 510.531C393.917 508.656 393.917 508.656 391.667 507.531C391.667 506.541 391.667 505.551 391.667 504.531Z" fill="#ECE1CF"/>
<path d="M425.667 494.531C429.442 495.622 432.137 496.439 434.667 499.531C430.447 499.052 427.87 498.365 424.667 495.531C424.997 495.201 425.327 494.871 425.667 494.531Z" fill="#ECE1CF"/>
<path d="M58.6665 482.531C59.6565 482.861 60.6465 483.191 61.6665 483.531C59.6865 485.841 57.7065 488.151 55.6665 490.531C55.0065 489.871 54.3465 489.211 53.6665 488.531C55.3165 486.551 56.9665 484.571 58.6665 482.531Z" fill="#ECE1CF"/>
<path d="M71.6665 327.531C73.1036 327.477 74.5413 327.438 75.979 327.406C76.7795 327.383 77.5801 327.36 78.4048 327.336C80.6665 327.531 80.6665 327.531 83.6665 329.531C80.3665 329.861 77.0665 330.191 73.6665 330.531C73.0065 329.541 72.3465 328.551 71.6665 327.531Z" fill="#ECE1CF"/>
<path d="M433.667 314.531C438.617 315.521 438.617 315.521 443.667 316.531C439.487 318.621 438.862 318.697 434.667 317.531C434.337 316.541 434.007 315.551 433.667 314.531Z" fill="#ECE1CF"/>
<path d="M230.667 287.531C230.997 288.521 231.327 289.511 231.667 290.531C229.729 293.219 229.729 293.219 227.667 295.531C226.677 295.201 225.687 294.871 224.667 294.531C226.647 292.221 228.627 289.911 230.667 287.531Z" fill="#ECE1CF"/>
<path d="M66.6665 246.531C67.6565 246.861 68.6465 247.191 69.6665 247.531C67.4165 249.594 67.4165 249.594 64.6665 251.531C62.354 251.281 62.354 251.281 60.6665 250.531C63.479 248.469 63.479 248.469 66.6665 246.531Z" fill="#ECE1CF"/>
<path d="M183.667 182.531C183.997 182.531 184.327 182.531 184.667 182.531C184.667 184.181 184.667 185.831 184.667 187.531C185.657 187.861 186.647 188.191 187.667 188.531C187.093 191.398 186.805 192.392 184.667 194.531C184.337 190.571 184.007 186.611 183.667 182.531Z" fill="#ECE1CF"/>
<path d="M40.6665 5.53101C41.3265 6.52101 41.9865 7.51101 42.6665 8.53101C39.2015 10.016 39.2015 10.016 35.6665 11.531C35.0065 10.871 34.3465 10.211 33.6665 9.53101C35.9765 8.21101 38.2865 6.89101 40.6665 5.53101Z" fill="#ECE1CF"/>
<path d="M306.667 480.531C308.977 480.861 311.287 481.191 313.667 481.531C313.667 482.191 313.667 482.851 313.667 483.531C311.027 483.531 308.387 483.531 305.667 483.531C305.997 482.541 306.327 481.551 306.667 480.531Z" fill="#ECE1CF"/>
<path d="M206.667 425.531C207.327 426.521 207.987 427.511 208.667 428.531C207.017 430.181 205.367 431.831 203.667 433.531C203.667 429.263 204.043 428.592 206.667 425.531Z" fill="#ECE1CF"/>
<path d="M8.66653 300.531C9.98653 301.191 11.3065 301.851 12.6665 302.531C8.70653 304.511 8.70653 304.511 4.66653 306.531C4.66653 305.541 4.66653 304.551 4.66653 303.531C6.66653 301.844 6.66653 301.844 8.66653 300.531Z" fill="#ECE1CF"/>
<path d="M59.6665 279.531C59.9965 280.521 60.3265 281.511 60.6665 282.531C58.354 284.094 58.354 284.094 55.6665 285.531C54.6765 285.201 53.6865 284.871 52.6665 284.531C57.4165 280.656 57.4165 280.656 59.6665 279.531Z" fill="#ECE1CF"/>
<path d="M183.667 157.531C185.647 158.521 185.647 158.521 187.667 159.531C187.337 160.191 187.007 160.851 186.667 161.531C186.44 163.235 186.258 164.944 186.104 166.656C185.978 168.021 185.978 168.021 185.85 169.414C185.79 170.112 185.729 170.811 185.667 171.531C185.337 171.531 185.007 171.531 184.667 171.531C184.337 166.911 184.007 162.291 183.667 157.531Z" fill="#ECE1CF"/>
<path d="M141.667 159.531C142.657 159.861 143.647 160.191 144.667 160.531C143.347 162.181 142.027 163.831 140.667 165.531C139.677 165.201 138.687 164.871 137.667 164.531C138.987 162.881 140.307 161.231 141.667 159.531Z" fill="#ECE1CF"/>
<path d="M498.667 140.531C498.997 141.191 499.327 141.851 499.667 142.531C497.357 142.861 495.047 143.191 492.667 143.531C492.667 142.541 492.667 141.551 492.667 140.531C496.417 139.406 496.417 139.406 498.667 140.531Z" fill="#ECE1CF"/>
<path d="M202.667 122.531C200.116 124.885 198.956 125.514 195.417 125.718C194.509 125.657 193.602 125.595 192.667 125.531C198.289 121.072 198.289 121.072 202.667 122.531Z" fill="#ECE1CF"/>
<path d="M478.667 119.531C478.337 120.191 478.007 120.851 477.667 121.531C474.02 122.645 471.334 122.474 467.667 121.531C471.679 118.856 474.032 118.041 478.667 119.531Z" fill="#ECE1CF"/>
<path d="M131.667 70.531C132.327 71.191 132.987 71.851 133.667 72.531C131.354 74.5935 131.354 74.5935 128.667 76.531C127.677 76.201 126.687 75.871 125.667 75.531C127.647 73.881 129.627 72.231 131.667 70.531Z" fill="#ECE1CF"/>
<path d="M2.66653 50.531C3.65653 50.531 4.64653 50.531 5.66653 50.531C5.33653 53.501 5.00653 56.471 4.66653 59.531C3.67653 58.871 2.68653 58.211 1.66653 57.531C1.99653 55.221 2.32653 52.911 2.66653 50.531Z" fill="#ECE1CF"/>
<path d="M518.667 17.531C520.604 18.2185 520.604 18.2185 522.667 19.531C523.417 22.156 523.417 22.156 523.667 24.531C521.687 22.881 519.707 21.231 517.667 19.531C517.997 18.871 518.327 18.211 518.667 17.531Z" fill="#ECE1CF"/>
<path d="M31.6665 10.531C32.6565 10.861 33.6465 11.191 34.6665 11.531C34.3365 12.521 34.0065 13.511 33.6665 14.531C32.0165 14.861 30.3665 15.191 28.6665 15.531C28.6665 14.541 28.6665 13.551 28.6665 12.531C29.6565 11.871 30.6465 11.211 31.6665 10.531Z" fill="#ECE1CF"/>
<path d="M296.667 479.531C299.307 479.861 301.947 480.191 304.667 480.531C304.667 481.191 304.667 481.851 304.667 482.531C301.697 482.531 298.727 482.531 295.667 482.531C295.997 481.541 296.327 480.551 296.667 479.531Z" fill="#ECE1CF"/>
<path d="M282.667 453.531C286.627 453.531 290.587 453.531 294.667 453.531C294.337 454.521 294.007 455.511 293.667 456.531C293.151 456.387 292.635 456.242 292.104 456.094C288.981 455.373 285.841 454.958 282.667 454.531C282.667 454.201 282.667 453.871 282.667 453.531Z" fill="#ECE1CF"/>
<path d="M244.667 305.531C245.327 305.861 245.987 306.191 246.667 306.531C245.917 308.906 245.917 308.906 244.667 311.531C242.687 312.521 242.687 312.521 240.667 313.531C241.987 310.891 243.307 308.251 244.667 305.531Z" fill="#ECE1CF"/>
<path d="M339.667 303.531C340.657 303.861 341.647 304.191 342.667 304.531C340.687 307.501 340.687 307.501 338.667 310.531C338.007 310.201 337.347 309.871 336.667 309.531C337.667 307.531 338.667 305.531 339.667 303.531Z" fill="#ECE1CF"/>
<path d="M350.667 287.531C350.997 287.531 351.327 287.531 351.667 287.531C351.917 289.781 351.917 289.781 351.667 292.531C349.667 294.844 349.667 294.844 347.667 296.531C348.165 292.796 348.541 290.719 350.667 287.531Z" fill="#ECE1CF"/>
<path d="M344.667 166.531C345.657 166.861 346.647 167.191 347.667 167.531C346.017 169.181 344.367 170.831 342.667 172.531C341.677 172.201 340.687 171.871 339.667 171.531C341.317 169.881 342.967 168.231 344.667 166.531Z" fill="#ECE1CF"/>
<path d="M358.667 19.531C359.792 21.281 359.792 21.281 360.667 23.531C359.792 25.781 359.792 25.781 358.667 27.531C357.677 27.531 356.687 27.531 355.667 27.531C357.542 21.781 357.542 21.781 358.667 19.531Z" fill="#ECE1CF"/>
<path d="M487.667 1.53101C489.977 2.19101 492.287 2.85101 494.667 3.53101C494.667 4.19101 494.667 4.85101 494.667 5.53101C491.697 5.20101 488.727 4.87101 485.667 4.53101C486.327 4.20101 486.987 3.87101 487.667 3.53101C487.667 2.87101 487.667 2.21101 487.667 1.53101Z" fill="#ECE1CF"/>
<path d="M243.667 457.531C243.997 458.191 244.327 458.851 244.667 459.531C241.854 460.156 241.854 460.156 238.667 460.531C237.677 459.871 236.687 459.211 235.667 458.531C238.595 457.555 240.623 457.449 243.667 457.531Z" fill="#ECE1CF"/>
<path d="M192.667 442.531C193.327 443.521 193.987 444.511 194.667 445.531C193.017 446.851 191.367 448.171 189.667 449.531C189.337 448.541 189.007 447.551 188.667 446.531C189.987 445.211 191.307 443.891 192.667 442.531Z" fill="#ECE1CF"/>
<path d="M199.667 434.531C200.327 435.521 200.987 436.511 201.667 437.531C200.017 438.851 198.367 440.171 196.667 441.531C196.337 440.871 196.007 440.211 195.667 439.531C196.987 437.881 198.307 436.231 199.667 434.531Z" fill="#ECE1CF"/>
<path d="M211.667 417.531C212.657 418.191 213.647 418.851 214.667 419.531C213.362 421.55 212.028 423.55 210.667 425.531C210.337 425.531 210.007 425.531 209.667 425.531C209.466 421.815 209.515 420.759 211.667 417.531Z" fill="#ECE1CF"/>
<path d="M152.667 372.531C154.229 374.344 154.229 374.344 155.667 376.531C154.667 379.531 154.667 379.531 152.667 380.531C151.542 374.781 151.542 374.781 152.667 372.531Z" fill="#ECE1CF"/>
<path d="M46.6665 357.531C46.9965 358.521 47.3265 359.511 47.6665 360.531C45.3565 360.861 43.0465 361.191 40.6665 361.531C40.6665 360.541 40.6665 359.551 40.6665 358.531C42.7421 357.978 44.5102 357.531 46.6665 357.531Z" fill="#ECE1CF"/>
<path d="M54.6665 330.531C54.3365 331.521 54.0065 332.511 53.6665 333.531C51.0265 333.201 48.3865 332.871 45.6665 332.531C48.8015 330.673 51.0412 330.33 54.6665 330.531Z" fill="#ECE1CF"/>
<path d="M312.667 308.531C314.317 309.851 315.967 311.171 317.667 312.531C317.337 313.521 317.007 314.511 316.667 315.531C314.667 314.281 314.667 314.281 312.667 312.531C312.667 311.211 312.667 309.891 312.667 308.531Z" fill="#ECE1CF"/>
<path d="M79.6665 267.531C80.3265 267.861 80.9865 268.191 81.6665 268.531C80.0165 270.181 78.3665 271.831 76.6665 273.531C75.6765 273.201 74.6865 272.871 73.6665 272.531C74.4709 271.892 75.2753 271.252 76.104 270.594C77.9416 269.125 77.9416 269.125 79.6665 267.531Z" fill="#ECE1CF"/>
<path d="M93.6665 226.531C94.3265 227.191 94.9865 227.851 95.6665 228.531C94.0165 229.851 92.3665 231.171 90.6665 232.531C90.0065 231.871 89.3465 231.211 88.6665 230.531C90.3165 229.211 91.9665 227.891 93.6665 226.531Z" fill="#ECE1CF"/>
<path d="M516.667 110.531C516.337 111.191 516.007 111.851 515.667 112.531C512.604 113.156 512.604 113.156 509.667 113.531C509.337 112.541 509.007 111.551 508.667 110.531C511.719 109.55 513.614 109.55 516.667 110.531Z" fill="#ECE1CF"/>
<path d="M390.667 19.531C390.997 19.531 391.327 19.531 391.667 19.531C391.337 21.841 391.007 24.151 390.667 26.531C389.677 26.531 388.687 26.531 387.667 26.531C389.542 20.656 389.542 20.656 390.667 19.531Z" fill="#ECE1CF"/>
<path d="M24.6665 15.531C25.6565 15.861 26.6465 16.191 27.6665 16.531C26.0165 18.181 24.3665 19.831 22.6665 21.531C22.0065 20.871 21.3465 20.211 20.6665 19.531C21.9865 18.211 23.3065 16.891 24.6665 15.531Z" fill="#ECE1CF"/>
<path d="M42.6665 500.531C43.354 502.344 43.354 502.344 43.6665 504.531C42.354 506.281 42.354 506.281 40.6665 507.531C40.0065 507.531 39.3465 507.531 38.6665 507.531C39.7405 504.616 40.4446 502.753 42.6665 500.531Z" fill="#ECE1CF"/>
<path d="M537.667 485.531C538.657 485.861 539.647 486.191 540.667 486.531C540.337 488.511 540.007 490.491 539.667 492.531C538.677 492.531 537.687 492.531 536.667 492.531C536.997 490.221 537.327 487.911 537.667 485.531Z" fill="#ECE1CF"/>
<path d="M224.667 441.531C225.657 441.531 226.647 441.531 227.667 441.531C227.007 442.851 226.347 444.171 225.667 445.531C224.347 445.531 223.027 445.531 221.667 445.531C222.979 443.531 222.979 443.531 224.667 441.531Z" fill="#ECE1CF"/>
<path d="M526.667 432.531C529.307 432.531 531.947 432.531 534.667 432.531C534.337 433.521 534.007 434.511 533.667 435.531C532.347 435.531 531.027 435.531 529.667 435.531C529.667 434.871 529.667 434.211 529.667 433.531C528.677 433.201 527.687 432.871 526.667 432.531Z" fill="#ECE1CF"/>
<path d="M518.667 318.531C519.327 319.521 519.987 320.511 520.667 321.531C518.357 321.861 516.047 322.191 513.667 322.531C513.667 321.541 513.667 320.551 513.667 319.531C515.317 319.201 516.967 318.871 518.667 318.531Z" fill="#ECE1CF"/>
<path d="M469.667 297.531C471.647 297.531 473.627 297.531 475.667 297.531C475.667 298.521 475.667 299.511 475.667 300.531C474.017 300.531 472.367 300.531 470.667 300.531C470.337 299.541 470.007 298.551 469.667 297.531Z" fill="#ECE1CF"/>
<path d="M74.6665 241.531C74.9965 242.521 75.3265 243.511 75.6665 244.531C73.1915 246.016 73.1915 246.016 70.6665 247.531C70.3365 246.541 70.0065 245.551 69.6665 244.531C71.3165 243.541 72.9665 242.551 74.6665 241.531Z" fill="#ECE1CF"/>
<path d="M363.667 155.531C363.667 156.521 363.667 157.511 363.667 158.531C362.017 159.191 360.367 159.851 358.667 160.531C358.007 159.871 357.347 159.211 356.667 158.531C361.417 155.531 361.417 155.531 363.667 155.531Z" fill="#ECE1CF"/>
<path d="M286.667 87.531C286.337 88.521 286.007 89.511 285.667 90.531C283.104 91.7185 283.104 91.7185 280.667 92.531C280.007 91.871 279.347 91.211 278.667 90.531C284.417 87.531 284.417 87.531 286.667 87.531Z" fill="#ECE1CF"/>
<path d="M235.667 2.53101C236.327 2.53101 236.987 2.53101 237.667 2.53101C237.667 3.19101 237.667 3.85101 237.667 4.53101C238.987 4.86101 240.307 5.19101 241.667 5.53101C237.212 6.02601 237.212 6.02601 232.667 6.53101C234.042 4.53101 234.042 4.53101 235.667 2.53101ZM230.667 6.53101C232.667 7.53101 232.667 7.53101 232.667 7.53101L230.667 6.53101Z" fill="#ECE1CF"/>
</svg>
